<svg xmlns="http://www.w3.org/2000/svg" xmlns:xlink="http://www.w3.org/1999/xlink" viewBox="0 0 45.51 53.02"><defs><style>.cls-1{fill:url(#New_Gradient_Swatch_copy);}.cls-2{fill:url(#New_Gradient_Swatch_1);}.cls-3{fill:url(#New_Gradient_Swatch_1-2);}</style><linearGradient id="New_Gradient_Swatch_copy" x1="6.8" y1="46.22" x2="31.57" y2="21.45" gradientUnits="userSpaceOnUse"><stop offset="0" stop-color="#00aeef"/><stop offset="1" stop-color="#00bdf2"/></linearGradient><linearGradient id="New_Gradient_Swatch_1" x1="34.53" y1="20.44" x2="40.33" y2="14.64" gradientUnits="userSpaceOnUse"><stop offset="0" stop-color="#fdb727"/><stop offset="1" stop-color="#ffcd22"/></linearGradient><linearGradient id="New_Gradient_Swatch_1-2" x1="27.77" y1="5" x2="31.16" y2="1.61" xlink:href="#New_Gradient_Swatch_1"/></defs><title>资源 4</title><g id="图层_2" data-name="图层 2"><g id="Icons"><g id="Clear_Night" data-name="Clear Night"><path class="cls-1" d="M23.19,53a23.18,23.18,0,0,1-6.4-45.46A1.19,1.19,0,0,1,18,7.87a1.21,1.21,0,0,1,.31,1.19A20.72,20.72,0,0,0,38.23,35.55,21,21,0,0,0,44,34.73a1.22,1.22,0,0,1,1.5,1.5A23.27,23.27,0,0,1,23.19,53Z"/><path class="cls-2" d="M38.22,22c-.44,1.59-1.14,1.59-1.58,0A5.8,5.8,0,0,0,33,18.32c-1.59-.43-1.59-1.14,0-1.57a5.78,5.78,0,0,0,3.67-3.67c.44-1.59,1.14-1.59,1.58,0a5.78,5.78,0,0,0,3.67,3.67c1.59.43,1.59,1.14,0,1.57A5.8,5.8,0,0,0,38.22,22Z"/><path class="cls-3" d="M29.92,5.91c-.25.93-.66.93-.91,0a3.41,3.41,0,0,0-2.15-2.15c-.93-.25-.93-.67,0-.92A3.41,3.41,0,0,0,29,.7c.25-.93.66-.93.91,0a3.41,3.41,0,0,0,2.15,2.14c.93.25.93.67,0,.92A3.41,3.41,0,0,0,29.92,5.91Z"/></g></g></g></svg>