<svg xmlns="http://www.w3.org/2000/svg" xmlns:xlink="http://www.w3.org/1999/xlink" viewBox="0 0 66.92 54.74"><defs><style>.cls-1{fill:#fff;}.cls-2{fill:url(#New_Gradient_Swatch_copy_2);}.cls-3{fill:url(#New_Gradient_Swatch_copy);}.cls-4{fill:url(#New_Gradient_Swatch_copy-2);}.cls-5{fill:url(#New_Gradient_Swatch_copy-3);}.cls-6{fill:url(#New_Gradient_Swatch_copy-4);}</style><linearGradient id="New_Gradient_Swatch_copy_2" x1="38.75" y1="39" x2="59.07" y2="18.67" gradientUnits="userSpaceOnUse"><stop offset="0" stop-color="#d0e8f8"/><stop offset="1" stop-color="#e1eef9"/></linearGradient><linearGradient id="New_Gradient_Swatch_copy" x1="9.13" y1="45.24" x2="22.13" y2="45.24" gradientUnits="userSpaceOnUse"><stop offset="0" stop-color="#00aeef"/><stop offset="1" stop-color="#00bdf2"/></linearGradient><linearGradient id="New_Gradient_Swatch_copy-2" x1="25.63" y1="45.24" x2="43.63" y2="45.24" xlink:href="#New_Gradient_Swatch_copy"/><linearGradient id="New_Gradient_Swatch_copy-3" x1="9.13" y1="53.24" x2="32.13" y2="53.24" xlink:href="#New_Gradient_Swatch_copy"/><linearGradient id="New_Gradient_Swatch_copy-4" x1="35.63" y1="53.24" x2="53.63" y2="53.24" xlink:href="#New_Gradient_Swatch_copy"/></defs><title>资源 10</title><g id="图层_2" data-name="图层 2"><g id="Icons"><g id="Fog"><path class="cls-1" d="M46,36.44a10.67,10.67,0,1,0,0-21.33h-.11a17,17,0,0,0-32.44-5.07H13.2a13.2,13.2,0,0,0,0,26.4"/><path class="cls-2" d="M60.22,36.44a6.7,6.7,0,1,0,0-13.39h-.07a10.69,10.69,0,0,0-20.37-3.18h-.16a8.29,8.29,0,0,0,0,16.58"/><path class="cls-3" d="M20.63,46.74h-10a1.5,1.5,0,0,1,0-3h10a1.5,1.5,0,1,1,0,3Z"/><path class="cls-4" d="M42.13,46.74h-15a1.5,1.5,0,0,1,0-3h15a1.5,1.5,0,0,1,0,3Z"/><path class="cls-5" d="M30.63,54.74h-20a1.5,1.5,0,0,1,0-3h20a1.5,1.5,0,1,1,0,3Z"/><path class="cls-6" d="M52.13,54.74h-15a1.5,1.5,0,0,1,0-3h15a1.5,1.5,0,0,1,0,3Z"/></g></g></g></svg>