<svg xmlns="http://www.w3.org/2000/svg" xmlns:xlink="http://www.w3.org/1999/xlink" viewBox="0 0 67 45.11"><defs><style>.cls-1{fill:url(#New_Gradient_Swatch_copy);}.cls-2{fill:url(#New_Gradient_Swatch_copy_2);}.cls-3{fill:#fff;}.cls-4{fill:url(#New_Gradient_Swatch_1);}.cls-5{fill:url(#New_Gradient_Swatch_1-2);}</style><linearGradient id="New_Gradient_Swatch_copy" x1="42.62" y1="24.38" x2="58.22" y2="8.78" gradientUnits="userSpaceOnUse"><stop offset="0" stop-color="#00aeef"/><stop offset="1" stop-color="#00bdf2"/></linearGradient><linearGradient id="New_Gradient_Swatch_copy_2" y1="26.89" x2="56.67" y2="26.89" gradientUnits="userSpaceOnUse"><stop offset="0" stop-color="#d0e8f8"/><stop offset="1" stop-color="#e1eef9"/></linearGradient><linearGradient id="New_Gradient_Swatch_1" x1="60.1" y1="7.32" x2="63.77" y2="3.65" gradientUnits="userSpaceOnUse"><stop offset="0" stop-color="#fdb727"/><stop offset="1" stop-color="#ffcd22"/></linearGradient><linearGradient id="New_Gradient_Swatch_1-2" x1="5.26" y1="10.49" x2="8.23" y2="7.52" xlink:href="#New_Gradient_Swatch_1"/></defs><title>资源 5</title><g id="图层_2" data-name="图层 2"><g id="Icons"><g id="Party_Cloudy_Night" data-name="Party Cloudy Night"><path class="cls-1" d="M52.94,28.67A14.6,14.6,0,0,1,48.91,0a.77.77,0,0,1,.75.19.76.76,0,0,1,.19.76A13.07,13.07,0,0,0,62.41,17.66,13.17,13.17,0,0,0,66,17.15a.76.76,0,0,1,1,.94A14.67,14.67,0,0,1,52.94,28.67Z"/><path class="cls-2" d="M46,45.11a10.67,10.67,0,1,0,0-21.33h-.11a17,17,0,0,0-32.44-5.06H13.2a13.2,13.2,0,0,0,0,26.4"/><path class="cls-3" d="M60.22,45.11a6.7,6.7,0,1,0,0-13.4h-.07a10.69,10.69,0,0,0-20.37-3.18h-.16a8.29,8.29,0,0,0,0,16.58"/><path class="cls-4" d="M62.43,8.31c-.27,1-.72,1-1,0A3.7,3.7,0,0,0,59.11,6c-1-.27-1-.72,0-1a3.68,3.68,0,0,0,2.33-2.32c.27-1,.72-1,1,0A3.67,3.67,0,0,0,64.75,5c1,.27,1,.72,0,1A3.68,3.68,0,0,0,62.43,8.31Z"/><path class="cls-5" d="M7.15,11.29c-.23.82-.59.82-.81,0A3,3,0,0,0,4.46,9.41c-.82-.22-.82-.58,0-.8A3,3,0,0,0,6.34,6.72c.22-.81.58-.81.81,0A3,3,0,0,0,9,8.61c.81.22.81.58,0,.8A3,3,0,0,0,7.15,11.29Z"/></g></g></g></svg>