<svg xmlns="http://www.w3.org/2000/svg" xmlns:xlink="http://www.w3.org/1999/xlink" viewBox="0 0 65.45 34.34"><defs><style>.cls-1{fill:url(#New_Gradient_Swatch_copy);}.cls-2{fill:url(#New_Gradient_Swatch_copy-2);}.cls-3{fill:url(#New_Gradient_Swatch_copy-3);}</style><linearGradient id="New_Gradient_Swatch_copy" x1="13.85" y1="29.2" x2="54.8" y2="29.2" gradientUnits="userSpaceOnUse"><stop offset="0" stop-color="#00aeef"/><stop offset="1" stop-color="#00bdf2"/></linearGradient><linearGradient id="New_Gradient_Swatch_copy-2" x1="0" y1="20.37" x2="65.45" y2="20.37" xlink:href="#New_Gradient_Swatch_copy"/><linearGradient id="New_Gradient_Swatch_copy-3" x1="24.5" y1="5.14" x2="54.8" y2="5.14" xlink:href="#New_Gradient_Swatch_copy"/></defs><title>资源 8</title><g id="图层_2" data-name="图层 2"><g id="Icons"><g id="Breezy"><path class="cls-1" d="M49.65,34.34a5.14,5.14,0,0,1-5.14-5.14,5.06,5.06,0,0,1,.39-1.95H15.44a1.6,1.6,0,0,1,0-3.2H49.65a5.15,5.15,0,1,1,0,10.29Z"/><path class="cls-2" d="M60.3,25.51a5.14,5.14,0,0,1-5.14-5.14,5.06,5.06,0,0,1,.39-1.95H1.6a1.6,1.6,0,0,1,0-3.2H60.3a5.15,5.15,0,1,1,0,10.29Z"/><path class="cls-3" d="M49.65,0a5.14,5.14,0,0,0-5.14,5.14,5,5,0,0,0,.39,2H26.09a1.6,1.6,0,0,0,0,3.2H49.65A5.15,5.15,0,1,0,49.65,0Z"/></g></g></g></svg>