<svg height="512pt" viewBox="0 -24 512 512" width="512pt" xmlns="http://www.w3.org/2000/svg"><path d="m338.621094 144.101562c-21.355469 11.851563-34.558594 32.113282-36.628906 52.601563-.261719 2.625 1.253906 5.15625 3.71875 6.09375 5.292968 2.015625 11.410156 1.769531 16.75-1.195313 4.78125-2.652343 8.03125-6.988281 9.445312-11.855468 4.875 1.375 10.273438.910156 15.054688-1.742188s8.03125-6.988281 9.445312-11.855468c4.878906 1.375 10.277344.910156 15.054688-1.742188 4.78125-2.652344 8.03125-6.988281 9.445312-11.855469 4.878906 1.375 10.277344.910157 15.058594-1.742187 5.339844-2.964844 8.78125-8.023438 9.875-13.582032.507812-2.589843-.839844-5.214843-3.207032-6.378906-18.480468-9.082031-42.660156-8.597656-64.011718 3.253906zm0 0" fill="#00fbaa"/><path d="m394.300781 132.875c4.300781-3.628906 10.730469-3.078125 14.359375 1.222656 24.679688 29.273438 35.722656 65.871094 31.9375 105.835938-2.503906 26.394531-10.65625 46.019531-12.820312 50.855468l-17.507813-10.9375c2.640625-6.542968 8.289063-22.429687 10.097657-42.527343 3.117187-34.601563-6.066407-64.914063-27.292969-90.089844-3.625-4.300781-3.078125-10.730469 1.226562-14.359375zm0 0" fill="#f4bc8e"/><path d="m424.421875 87.597656c-19.25 15.03125-29.136719 37.097656-27.996094 57.65625.144531 2.636719 2.039063 4.898438 4.621094 5.445313 5.542969 1.164062 11.542969-.027344 16.359375-3.789063 4.308594-3.363281 6.847656-8.152344 7.484375-13.175781 5.03125.597656 10.292969-.703125 14.601563-4.066406 4.308593-3.367188 6.847656-8.152344 7.484374-13.179688 5.035157.601563 10.292969-.703125 14.601563-4.066406 4.3125-3.363281 6.847656-8.152344 7.488281-13.175781 5.03125.597656 10.289063-.703125 14.597656-4.066406 4.816407-3.757813 7.429688-9.292969 7.644532-14.953126.097656-2.636718-1.640625-5.023437-4.160156-5.800781-19.667969-6.101562-43.476563-1.859375-62.726563 13.171875zm0 0" fill="#00fbaa"/><path d="m367.320312 90.683594c-22.132812-10.328125-46.285156-9.121094-64.085937 1.230468-2.28125 1.328126-3.4375 4.042969-2.75 6.589844 1.476563 5.46875 5.265625 10.273438 10.800781 12.855469 4.957032 2.3125 10.371094 2.398437 15.140625.6875 1.753907 4.753906 5.296875 8.851563 10.253907 11.164063 4.953124 2.308593 10.371093 2.398437 15.140624.683593 1.75 4.757813 5.296876 8.851563 10.25 11.164063 4.957032 2.3125 10.375 2.398437 15.144532.6875 1.75 4.753906 5.296875 8.851562 10.25 11.164062 5.535156 2.582032 11.652344 2.398438 16.792968.019532 2.394532-1.109376 3.730469-3.742188 3.28125-6.339844-3.5-20.292969-18.089843-39.578125-40.21875-49.90625zm0 0" fill="#78ffce"/><path d="m438.675781 148.410156c0 8.574219-6.949219 15.527344-15.523437 15.527344-8.574219 0-15.527344-6.953125-15.527344-15.527344 0-8.574218 6.953125-15.523437 15.527344-15.523437 8.574218 0 15.523437 6.949219 15.523437 15.523437zm0 0" fill="#f8e98e"/><path d="m419.230469 164.308594c0 8.574218-6.949219 15.523437-15.523438 15.523437s-15.523437-6.949219-15.523437-15.523437c0-8.574219 6.949218-15.527344 15.523437-15.527344s15.523438 6.953125 15.523438 15.527344zm0 0" fill="#fab03c"/><path d="m504.5 307.425781v137.019531c0 11.046876-8.953125 20-20 20h-457c-11.046875 0-20-8.953124-20-20v-137.019531zm0 0" fill="#38aaff"/><path d="m504.5 387.9375v56.507812c0 11.046876-8.953125 20-20 20h-457c-11.046875 0-20-8.953124-20-20v-56.507812zm0 0" fill="#2081f6"/><path d="m7.5 307.425781h497v32.554688h-497zm0 0" fill="#a0ecff"/><path d="m229.589844 130.476562c0 43.421876-35.199219 78.621094-78.625 78.621094-43.421875 0-78.621094-35.199218-78.621094-78.621094 0-43.425781 35.199219-78.625 78.621094-78.625 43.425781 0 78.625 35.199219 78.625 78.625zm0 0" fill="#f6cb43"/><path d="m224.339844 158.765625c-11.351563 29.441406-39.921875 50.332031-73.371094 50.332031s-62.019531-20.890625-73.378906-50.332031c11.359375-29.441406 39.929687-50.328125 73.378906-50.328125s62.019531 20.886719 73.371094 50.328125zm0 0" fill="#fab03c"/><path d="m206.804688 387.9375c0-74.554688 60.4375-134.996094 134.992187-134.996094s134.992187 60.441406 134.992187 134.996094zm0 0" fill="#fbdbb7"/><path d="m335.976562 323.25-27.433593 6.167969-17.503907-41.9375 41.53125-9.335938zm0 0" fill="#fc4830"/><path d="m279.425781 370.601562c0-33.378906 27.058594-60.441406 60.4375-60.441406 33.382813 0 60.441407 27.0625 60.441407 60.441406zm0 0" fill="#fbdbb7"/><path d="m476.789062 387.9375h-35.960937c0-68.460938-50.949219-125.007812-117.007813-133.808594 5.878907-.789062 11.878907-1.191406 17.980469-1.191406 74.550781 0 134.988281 60.441406 134.988281 135zm0 0" fill="#f4bc8e"/><path d="m504.5 299.925781h-50.59375c-4.644531-5.917969-9.734375-11.421875-15.195312-16.488281 3.5-10 7.65625-24.902344 9.351562-42.796875 2.503906-26.417969-1.121094-51.304687-10.742188-74.085937 2.078126-1.625 3.902344-3.613282 5.359376-5.941407 3.257812-5.214843 4.289062-11.390625 2.90625-17.382812-.554688-2.410157-1.492188-4.667969-2.738282-6.726563.429688-.296875.851563-.605468 1.261719-.925781 3.945313-3.082031 6.910156-7.097656 8.675781-11.65625 4.851563-.605469 9.464844-2.507813 13.410156-5.589844 3.945313-3.078125 6.914063-7.09375 8.675782-11.65625 4.855468-.605469 9.46875-2.507812 13.414062-5.585937 6.378906-4.984375 10.214844-12.488282 10.519532-20.582032.226562-6.011718-3.652344-11.457031-9.433594-13.25-22.898438-7.09375-48.902344-1.703124-69.5625 14.429688-8.546875 6.671875-15.617188 14.789062-20.847656 23.84375-7.488282-8.910156-17.167969-16.371094-28.46875-21.644531-23.753907-11.082031-50.304688-10.503907-71.027344 1.546875-5.230469 3.042968-7.789063 9.222656-6.222656 15.027344 2.113281 7.820312 7.535156 14.269531 14.871093 17.695312 4.539063 2.117188 9.460938 2.9375 14.324219 2.4375 2.742188 4.050781 6.535156 7.296875 11.070312 9.414062 3.855469 1.796876 7.992188 2.648438 12.132813 2.5625-3.632813 1.402344-7.195313 3.054688-10.660156 4.976563-22.917969 12.71875-38.039063 34.550781-40.449219 58.402344-.609375 6.019531 2.890625 11.722656 8.511719 13.859375 3.164062 1.203125 6.46875 1.796875 9.765625 1.796875 4.597656 0 9.167968-1.15625 13.292968-3.445313 4.375-2.429687 7.929688-5.933594 10.382813-10.164062 4.898437.160156 9.742187-1.003906 14.117187-3.433594 4.378907-2.429688 7.929688-5.933594 10.382813-10.164062 4.894531.144531 9.742187-1.003907 14.117187-3.433594 3.078126-1.710938 5.738282-3.957032 7.902344-6.605469 1.824219 3.773437 4.691406 7.09375 8.503906 9.476563 3.785157 2.363281 7.996094 3.492187 12.164063 3.492187 1.25 0 2.492187-.113281 3.722656-.3125 5.246094 15.195313 7.105469 31.867187 5.503907 49.632813-.878907 9.761718-2.722657 18.460937-4.5625 25.25-20.085938-10.59375-42.8125-16.457032-66.539063-16.457032-45.386719 0-85.886719 21.332032-112 54.496094-.070313-.003906-.136719-.011719-.207031-.011719h-56.589844c-4.140625 0-7.5 3.355469-7.5 7.5s3.359375 7.5 7.5 7.5h46.476562c-11.679687 19.488281-18.832031 41.980469-20 66.023438h-112.394531c-4.140625 0-7.5 3.355469-7.5 7.5s3.359375 7.5 7.5 7.5l389.707031-.515625c4.144532 0 7.5-3.355469 7.5-7.5 0-7.082032-.527343-14.21875-1.574218-21.214844-.613282-4.097656-4.429688-6.921875-8.523438-6.3125-4.097656.613281-6.921875 4.433594-6.3125 8.527344.566406 3.800781.964844 7.644531 1.191406 11.5h-254.550781c3.898438-66.820313 59.496094-119.992188 127.277344-119.992188 51.253906 0 97.328125 30.480469 117.382813 77.660156 1.625 3.8125 6.027343 5.589844 9.835937 3.964844 3.8125-1.621094 5.589844-6.023437 3.96875-9.835937-2.558594-6.023438-5.519531-11.792969-8.804687-17.304688h40.320312c4.140625 0 7.5-3.359375 7.5-7.5 0-4.144531-3.359375-7.5-7.5-7.5zm-77.097656-158.320312c1.820312 1.136719 3.085937 2.910156 3.566406 5 .484375 2.089843.125 4.238281-1.011719 6.058593-1.101562 1.761719-2.804687 2.976563-4.730469 3.492188-1.707031-4.523438-4.84375-8.550781-9.238281-11.324219.113281-.226562.222657-.457031.359375-.675781 1.132813-1.816406 2.910156-3.082031 5-3.5625 2.085938-.484375 4.238282-.125 6.054688 1.011719zm-4.167969 34.90625c.414063-.664063.789063-1.339844 1.128906-2.027344 1.265625 3.15625 2.421875 6.351563 3.433594 9.597656l-5.460937.304688c-.496094-1.546875-1.035157-3.078125-1.59375-4.597657.910156-1.003906 1.75-2.09375 2.492187-3.277343zm9.621094 31.527343-5.414063-.320312c-.347656-2.875-.785156-5.714844-1.320312-8.523438l5.34375-.296874c.566406 3.015624 1.03125 6.0625 1.390625 9.140624zm-4.417969 14.765626 5.367188.316406c.03125 2.796875-.023438 5.617187-.152344 8.460937l-5.316406-1.28125c.097656-2.519531.128906-5.019531.101562-7.496093zm-1.453125 22.597656 5.261719 1.273437c-.449219 3.175781-.972656 6.226563-1.546875 9.140625l-5.03125-2.386718c.484375-2.558594.929687-5.242188 1.316406-8.027344zm2.054687-151.894532c16.164063-12.621093 36.984376-17.273437 54.660157-12.285156-.445313 3.171875-2.097657 6.050782-4.648438 8.042969-2.589843 2.019531-5.816406 2.921875-9.097656 2.53125-4.089844-.492187-7.808594 2.414063-8.328125 6.5-.414062 3.273437-2.070312 6.1875-4.660156 8.210937-2.589844 2.023438-5.824219 2.925782-9.097656 2.53125-4.085938-.488281-7.808594 2.414063-8.328126 6.5-.417968 3.273438-2.070312 6.191407-4.664062 8.214844-1.582031 1.234375-3.375 2.046875-5.332031 2.410156-.082031.015626-.160157.039063-.238281.054688-3.660157-1.019531-7.53125-1.121094-11.335938-.242188-2.105469.484376-4.089844 1.261719-5.933594 2.277344-1-2.839844-2.183594-5.613281-3.542968-8.3125 4.320312-10.175781 11.394531-19.289062 20.546874-26.433594zm-89.1875 22.90625c-2.980468-1.390624-5.246093-3.859374-6.386718-6.960937-1.425782-3.863281-5.695313-5.859375-9.574219-4.464844-3.105469 1.117188-6.453125.964844-9.429687-.425781-2.933594-1.367188-5.191407-3.804688-6.339844-6.792969 16.113281-8.820312 37.445312-8.960937 56.027344-.292969v.003907c18.582031 8.667969 32.175781 25.109375 35.765624 43.121093-3.03125 1.039063-6.347656.878907-9.277343-.488281-2.976563-1.390625-5.246094-3.859375-6.386719-6.960937-1.117188-3.027344-3.984375-4.910156-7.039062-4.910156-.839844 0-1.695313.144531-2.535157.445312-3.105469 1.117188-6.453125.964844-9.433593-.425781-2.976563-1.390625-5.246094-3.859375-6.386719-6.957031-1.421875-3.863282-5.691407-5.859376-9.570313-4.46875-3.109375 1.121093-6.457031.964843-9.433594-.421876zm33.855469 44.046876c-.921875 3.167968-3.011719 5.792968-5.882812 7.386718-2.875 1.59375-6.203125 1.976563-9.382813 1.085938-3.960937-1.113282-8.085937 1.167968-9.238281 5.125-.917969 3.167968-3.007813 5.792968-5.882813 7.386718-2.871093 1.59375-6.203124 1.980469-9.378906 1.085938-3.964844-1.113281-8.089844 1.171875-9.238281 5.125-.921875 3.167969-3.011719 5.792969-5.882813 7.390625-2.828124 1.566406-6.125 1.964844-9.21875 1.136719 2.316407-18.21875 14.730469-35.570313 32.660157-45.523438 6.4375-3.570312 13.257812-6.050781 20.285156-7.410156 3.472656 1.058594 7.089844 1.414062 10.675781 1.042969 2.578125 3.804687 6.089844 6.890625 10.265625 9.007812-.347656.636719-.667969 1.285157-.949219 1.941407-3.835937-.859376-7.722656 1.394531-8.832031 5.21875zm25.746094 10.652343c-3.75-2.34375-4.894531-7.304687-2.550781-11.058593 2.34375-3.753907 7.304687-4.894532 11.058594-2.554688 3.75 2.347656 4.894531 7.308594 2.550781 11.058594-2.34375 3.753906-7.304688 4.902344-11.058594 2.554687zm22.660156 97.230469 4.945313 2.34375c-.25.855469-.5 1.679688-.753906 2.484375-1.527344-1.125-3.074219-2.222656-4.644532-3.285156.148438-.5.300782-1.015625.453125-1.542969zm0 0"/><path d="m141.5 307.425781c0-4.140625-3.359375-7.5-7.5-7.5h-126.5c-4.140625 0-7.5 3.359375-7.5 7.5 0 4.144531 3.359375 7.5 7.5 7.5h126.5c4.140625 0 7.5-3.355469 7.5-7.5zm0 0"/><path d="m451.710938 406.945312h-121.640626c-4.140624 0-7.5 3.355469-7.5 7.5 0 4.140626 3.359376 7.5 7.5 7.5h121.640626c4.140624 0 7.5-3.359374 7.5-7.5 0-4.144531-3.359376-7.5-7.5-7.5zm0 0"/><path d="m222.75 178.054688c9.382812-14.128907 14.339844-30.582032 14.339844-47.578126 0-47.492187-38.636719-86.125-86.125-86.125-47.488282 0-86.121094 38.632813-86.121094 86.125 0 47.488282 38.632812 86.121094 86.121094 86.121094 16.429687 0 32.425781-4.664062 46.261718-13.492187 3.492188-2.226563 4.515626-6.867188 2.285157-10.355469-2.226563-3.492188-6.863281-4.519531-10.355469-2.289062-11.417969 7.285156-24.625 11.140624-38.191406 11.140624-39.21875 0-71.121094-31.90625-71.121094-71.125s31.902344-71.125 71.121094-71.125 71.125 31.90625 71.125 71.125c0 14.035157-4.09375 27.617188-11.835938 39.28125-2.292968 3.449219-1.351562 8.105469 2.097656 10.394532 3.453126 2.292968 8.105469 1.351562 10.398438-2.097656zm0 0"/><path d="m150.964844 31.933594c4.144531 0 7.5-3.359375 7.5-7.5v-16.933594c0-4.144531-3.355469-7.5-7.5-7.5-4.140625 0-7.5 3.355469-7.5 7.5v16.933594c0 4.140625 3.359375 7.5 7.5 7.5zm0 0"/><path d="m143.464844 236.515625v16.933594c0 4.144531 3.359375 7.5 7.5 7.5 4.144531 0 7.5-3.355469 7.5-7.5v-16.933594c0-4.144531-3.355469-7.5-7.5-7.5-4.140625 0-7.5 3.359375-7.5 7.5zm0 0"/><path d="m91.449219 42.390625c1.390625 2.40625 3.910156 3.75 6.503906 3.75 1.269531 0 2.5625-.324219 3.742187-1.003906 3.585938-2.074219 4.816407-6.660157 2.746094-10.246094l-8.46875-14.664063c-2.070312-3.589843-6.660156-4.816406-10.246094-2.746093-3.585937 2.070312-4.816406 6.65625-2.742187 10.246093zm0 0"/><path d="m200.238281 215.8125c-3.589843 2.070312-4.816406 6.660156-2.746093 10.246094l8.46875 14.667968c1.386718 2.40625 3.90625 3.75 6.5 3.75 1.273437 0 2.5625-.324218 3.742187-1.007812 3.585937-2.070312 4.816406-6.65625 2.746094-10.242188l-8.46875-14.667968c-2.070313-3.585938-6.65625-4.816406-10.242188-2.746094zm0 0"/><path d="m40.714844 75.480469 14.667968 8.46875c1.179688.683593 2.46875 1.007812 3.742188 1.007812 2.59375 0 5.113281-1.347656 6.503906-3.753906 2.070313-3.585937.839844-8.171875-2.746094-10.242187l-14.667968-8.46875c-3.585938-2.070313-8.171875-.84375-10.242188 2.746093-2.074218 3.585938-.84375 8.171875 2.742188 10.242188zm0 0"/><path d="m239.050781 189.992188 14.664063 8.464843c1.183594.683594 2.472656 1.007813 3.746094 1.007813 2.589843 0 5.109374-1.347656 6.5-3.75 2.070312-3.589844.84375-8.175782-2.746094-10.246094l-14.664063-8.46875c-3.585937-2.070312-8.175781-.84375-10.246093 2.746094-2.070313 3.585937-.839844 8.175781 2.746093 10.246094zm0 0"/><path d="m249.507812 130.476562c0 4.140626 3.355469 7.5 7.5 7.5h16.933594c4.140625 0 7.5-3.359374 7.5-7.5 0-4.144531-3.359375-7.5-7.5-7.5h-16.933594c-4.144531 0-7.5 3.355469-7.5 7.5zm0 0"/><path d="m27.988281 137.976562h16.9375c4.140625 0 7.5-3.359374 7.5-7.5 0-4.144531-3.359375-7.5-7.5-7.5h-16.9375c-4.140625 0-7.5 3.355469-7.5 7.5 0 4.140626 3.359375 7.5 7.5 7.5zm0 0"/><path d="m242.808594 84.957031c1.269531 0 2.5625-.324219 3.742187-1.007812l14.664063-8.46875c3.589844-2.070313 4.816406-6.65625 2.746094-10.242188-2.070313-3.589843-6.660157-4.816406-10.246094-2.746093l-14.664063 8.46875c-3.585937 2.070312-4.816406 6.65625-2.746093 10.242187 1.390624 2.40625 3.910156 3.753906 6.503906 3.753906zm0 0"/><path d="m55.382812 177-14.667968 8.46875c-3.585938 2.070312-4.816406 6.65625-2.746094 10.246094 1.390625 2.402344 3.910156 3.75 6.503906 3.75 1.269532 0 2.5625-.324219 3.742188-1.007813l14.667968-8.464843c3.585938-2.070313 4.8125-6.660157 2.742188-10.246094-2.070312-3.589844-6.65625-4.816406-10.242188-2.746094zm0 0"/><path d="m200.238281 45.136719c1.179688.679687 2.46875 1.003906 3.742188 1.003906 2.589843 0 5.113281-1.34375 6.5-3.75l8.46875-14.664063c2.070312-3.585937.839843-8.175781-2.746094-10.246093-3.585937-2.070313-8.171875-.84375-10.242187 2.746093l-8.46875 14.664063c-2.070313 3.585937-.84375 8.171875 2.746093 10.246094zm0 0"/><path d="m91.449219 218.558594-8.464844 14.667968c-2.074219 3.585938-.84375 8.171876 2.742187 10.242188 1.183594.683594 2.472657 1.007812 3.746094 1.007812 2.589844 0 5.113282-1.34375 6.5-3.75l8.46875-14.667968c2.070313-3.585938.839844-8.171875-2.746094-10.246094-3.585937-2.070312-8.175781-.839844-10.246093 2.746094zm0 0"/><path d="m274.199219 353.109375c-1.0625 4.003906 1.320312 8.109375 5.320312 9.175781.648438.171875 1.292969.253906 1.933594.253906 3.316406 0 6.351563-2.21875 7.242187-5.574218 6.148438-23.140625 27.191407-39.304688 51.167969-39.304688 7.152344 0 14.082031 1.398438 20.605469 4.160156 3.816406 1.613282 8.214844-.171874 9.828125-3.984374 1.613281-3.816407-.167969-8.21875-3.984375-9.832032-7.746094-3.273437-15.933594-5.039062-24.367188-5.289062l-1.898437-25.136719c-.164063-2.171875-1.265625-4.164063-3.015625-5.460937-1.75-1.296876-3.980469-1.765626-6.105469-1.289063l-41.53125 9.335937c-2.160156.484376-4 1.902344-5.015625 3.871094-1.019531 1.972656-1.113281 4.289063-.261718 6.335938l11.851562 28.390625c-10.339844 8.742187-18.109375 20.582031-21.769531 34.347656zm27.203125-60.269531 24.339844-5.472656 1.25 16.535156c-6.445313 1.246094-12.605469 3.40625-18.316407 6.363281zm0 0"/><path d="m403.242188 328.027344c-.023438 0-.046876 0-.070313 0-4.109375 0-7.460937 3.3125-7.5 7.429687-.039063 4.140625 3.289063 7.53125 7.429687 7.570313h.105469.070313c4.109375 0 7.460937-3.3125 7.5-7.429688.039062-4.144531-3.289063-7.53125-7.429688-7.570312zm0 0"/><path d="m383.082031 339.804688c-4.140625 0-7.5 3.359374-7.5 7.5 0 4.144531 3.359375 7.5 7.5 7.5h.105469c4.140625 0 7.5-3.355469 7.5-7.5 0-4.140626-3.359375-7.5-7.5-7.5zm0 0"/><path d="m255.949219 332.882812c-4.144531 0-7.5 3.355469-7.5 7.5 0 4.140626 3.355469 7.5 7.5 7.5h.101562c4.144531 0 7.5-3.359374 7.5-7.5 0-4.144531-3.355469-7.5-7.5-7.5zm0 0"/></svg>