<svg height="512pt" viewBox="0 -66 512 512" width="512pt" xmlns="http://www.w3.org/2000/svg"><path d="m105.726562 56.941406c-.058593-.683594-.09375-1.375-.09375-2.070312.003907-13.585938 11.207032-24.589844 25.023438-24.585938 13.234375.003906 24.054688 10.113282 24.941406 22.902344 29.085938-1.605469 61.371094-2.492188 95.371094-2.480469 21.765625.007813 42.832031.386719 62.804688 1.082031-.011719-.351562-.027344-.703124-.027344-1.058593.007812-15.910157 13.132812-28.804688 29.320312-28.800781 6.9375.003906 13.304688 2.378906 18.320313 6.339843 5.800781-12.265625 18.441406-20.777343 33.109375-20.769531 20.148437.007812 36.472656 16.070312 36.464844 35.878906 0 6.265625-1.640626 12.148438-4.511719 17.273438 35.039062 5 56.234375 11.503906 56.230469 18.613281-.003907 15.722656-103.757813 28.425781-231.734376 28.378906-127.976562-.046875-231.71875-12.832031-231.714843-28.554687.003906-8.96875 33.757812-16.953125 86.496093-22.148438zm0 0" fill="#c4e1e8"/><path d="m482.679688 79.261719c-.007813 8.269531-28.660157 15.703125-74.417969 20.882812-3.140625-6.429687-23.640625-12.292969-55.8125-16.882812 2.871093-5.117188 4.511719-11.007813 4.511719-17.269531.007812-19.128907-15.230469-34.769532-34.421876-35.820313 5.289063-5.097656 12.539063-8.238281 20.53125-8.238281 6.929688 0 13.300782 2.378906 18.320313 6.339844 5.800781-12.269532 18.4375-20.78125 33.097656-20.769532 20.152344 0 36.480469 16.070313 36.472657 35.878906 0 6.261719-1.640626 12.148438-4.511719 17.269532 35.039062 5 56.230469 11.511718 56.230469 18.609375zm0 0" fill="#a4d5dd"/><path d="m99.742188 226.042969c-1.285157-3.265625-2-6.816407-2-10.535157 0-15.914062 12.902343-28.816406 28.816406-28.816406 5.09375 0 9.878906 1.328125 14.03125 3.652344 5.175781-17.046875 21.011718-29.457031 39.75-29.457031 22.152344 0 40.253906 17.347656 41.472656 39.195312 3.175781-1.492187 6.71875-2.332031 10.460938-2.332031 11.25 0 20.730468 7.558594 23.65625 17.875 6.835937-.078125 13.753906-.117188 20.753906-.117188 9.5625 0 18.984375.074219 28.238281.214844 0-.070312-.007813-.144531-.007813-.214844 0-13.585937 11.011719-24.597656 24.597657-24.597656 6.152343 0 11.773437 2.265625 16.085937 6.003906 6.1875-11.6875 18.464844-19.648437 32.605469-19.648437 20.367187 0 36.875 16.507813 36.875 36.875 0 2.449219-.242187 4.839844-.699219 7.15625 54.757813 5.195313 90.121094 13.421875 90.121094 22.679687 0 15.722657-101.996094 28.46875-227.816406 28.46875-125.820313 0-227.820313-12.746093-227.820313-28.46875 0-6.796874 19.074219-13.039062 50.878907-17.933593zm0 0" fill="#a0ecff"/><path d="m504.5 243.972656c0 4.460938-8.230469 8.691406-22.890625 12.449219-11.398437-7.339844-44.28125-13.707031-90.140625-18.058594.480469-2.429687.742188-4.941406.742188-7.511719 0-21.359374-17.320313-38.679687-38.679688-38.679687-1.761719 0-3.5.121094-5.203125.351563 6.703125-9.242188 17.582031-15.261719 29.871094-15.261719 20.371093 0 36.878906 16.511719 36.878906 36.882812 0 2.449219-.25 4.839844-.699219 7.148438 54.761719 5.199219 90.121094 13.429687 90.121094 22.679687zm0 0" fill="#60daff"/><path d="m368.628906 298.851562c.621094-2.222656.960938-4.566406.960938-6.988281 0-14.34375-11.628906-25.972656-25.976563-25.972656-6.457031 0-12.359375 2.363281-16.902343 6.261719-3.128907-17.988282-18.804688-31.667969-37.6875-31.667969-17.261719 0-31.847657 11.429687-36.617188 27.132813-3.828125-2.136719-8.234375-3.359376-12.925781-3.359376-14.660157 0-26.542969 11.882813-26.542969 26.539063v.007813c-36.210938.09375-104.988281 3.921874-139.84375 7.175781-40.5 3.773437-65.59375 11.542969-65.59375 19.042969 0 14.480468 93.957031 26.222656 209.859375 26.222656 115.898437 0 209.855469-11.738282 209.855469-26.222656 0-7.058594-22.316406-13.460938-58.585938-18.171876zm0 0" fill="#f0f5f7"/><path d="m427.21875 317.023438c0 4.53125-9.207031 8.789062-25.410156 12.519531-6.667969-5.46875-26.867188-10.378907-56.179688-14.191407.621094-2.230468.960938-4.570312.960938-6.988281 0-14.339843-11.628906-25.96875-25.980469-25.96875-6.449219 0-12.347656 2.359375-16.898437 6.257813-3.132813-17.988282-18.800782-31.667969-37.691407-31.667969-3.179687 0-6.269531.386719-9.21875 1.117187 6.800781-10.597656 18.6875-17.617187 32.21875-17.617187 18.890625 0 34.558594 13.679687 37.691407 31.667969 4.550781-3.898438 10.449218-6.257813 16.898437-6.257813 14.351563 0 25.980469 11.628907 25.980469 25.96875 0 2.417969-.339844 4.757813-.960938 6.988281 36.269532 4.710938 58.589844 11.113282 58.589844 18.171876zm0 0" fill="#dde9ed"/><path d="m417.78125 121.671875c-44.488281 5.464844-103.476562 8.472656-166.101562 8.472656h-.746094c-4.144532 0-7.5 3.359375-7.5 7.5 0 4.144531 3.355468 7.5 7.5 7.5h.746094c63.214843 0 122.855468-3.046875 167.929687-8.582031 4.113281-.507812 7.035156-4.25 6.53125-8.359375-.503906-4.113281-4.261719-7.03125-8.359375-6.53125zm0 0"/><path d="m461.296875 114.394531c-4.882813 1.136719-10.351563 2.242188-16.257813 3.277344-4.078124.71875-6.804687 4.605469-6.089843 8.6875.640625 3.640625 3.808593 6.203125 7.378906 6.203125.433594 0 .867187-.039062 1.308594-.117188 6.175781-1.085937 11.914062-2.242187 17.0625-3.441406 4.035156-.941406 6.542969-4.976562 5.601562-9.007812-.9375-4.035156-4.96875-6.539063-9.003906-5.601563zm0 0"/><path d="m165.835938 105.648438c-.179688 4.136718 3.027343 7.640624 7.164062 7.824218 25.011719 1.097656 51.230469 1.664063 77.941406 1.671875h.742188c61.910156 0 120.144531-2.957031 164.027344-8.332031 65.4375-8.011719 74.464843-17.972656 74.46875-27.542969.003906-8.347656-6.703126-17.0625-53.238282-24.609375 1.003906-3.664062 1.519532-7.460937 1.519532-11.277344.003906-11.605468-4.582032-22.515624-12.914063-30.714843-8.300781-8.164063-19.324219-12.66406275-31.050781-12.667969-.003906 0-.011719 0-.015625 0-14.203125 0-27.449219 6.847656-35.628907 17.953125-4.90625-2.296875-10.308593-3.519531-15.785156-3.523437-.003906 0-.007812 0-.011718 0-17.980469 0-32.996094 12.789062-36.183594 29.632812-12.210938-.375-24.777344-.628906-37.46875-.753906-.023438 0-.050782 0-.074219 0-4.105469 0-7.457031 3.308594-7.5 7.421875-.039063 4.144531 3.285156 7.535156 7.425781 7.578125 15.0625.148437 29.949219.476562 44.257813.976562 2.066406.0625 4.097656-.757812 5.566406-2.226562 1.46875-1.472656 2.261719-3.527344 2.1875-5.605469-.007813-.238281-.019531-.480469-.019531-.71875.003906-11.75 9.785156-21.304687 21.808594-21.304687h.007812c5.03125.003906 9.761719 1.636718 13.675781 4.730468 1.792969 1.414063 4.140625 1.9375 6.363281 1.414063 2.222657-.523438 4.089844-2.03125 5.066407-4.097657 4.730469-10.011718 15.058593-16.476562 26.3125-16.476562h.011719c7.765624.003906 15.058593 2.972656 20.53125 8.359375 5.445312 5.355469 8.441406 12.464844 8.4375 20.019531 0 4.753906-1.230469 9.460938-3.554688 13.605469-1.210938 2.15625-1.277344 4.773437-.183594 6.988281 1.09375 2.21875 3.214844 3.753906 5.664063 4.105469 30.519531 4.355469 42.753906 8.769531 47.492187 11.1875-5.636718 2.878906-21.886718 8.570313-66.910156 13.585937-42.277344 4.707032-97.039062 7.292969-154.296875 7.292969-.238281 0-.488281 0-.726563 0-26.492187-.007812-52.496093-.566406-77.285156-1.660156-4.140625-.175781-7.640625 3.027344-7.824218 7.164063zm0 0"/><path d="m51.339844 101.226562c21.679687 4.386719 52.394531 7.996094 88.828125 10.4375.171875.011719.339843.015626.511719.015626 3.910156 0 7.207031-3.035157 7.472656-6.996094.277344-4.132813-2.847656-7.707032-6.980469-7.984375-32.414063-2.171875-60.425781-5.300781-81.003906-9.050781-18.800781-3.425782-27.355469-6.632813-31.136719-8.5625 6.054688-3.101563 24.355469-9.449219 77.429688-14.679688 4.082031-.402344 7.085937-4.007812 6.738281-8.09375-.042969-.539062-.066407-1.007812-.066407-1.4375.003907-9.425781 7.859376-17.089844 17.515626-17.089844h.007812c9.171875.003906 16.84375 6.996094 17.460938 15.921875.28125 4.089844 3.804687 7.183594 7.894531 6.96875 25.476562-1.40625 52.632812-2.21875 80.714843-2.417969 4.140626-.027343 7.476563-3.410156 7.445313-7.554687-.027344-4.125-3.382813-7.445313-7.5-7.445313-.015625 0-.035156 0-.054687 0-25.941407.183594-51.113282.890626-74.925782 2.097657-4.140625-13.105469-16.585937-22.5625-31.03125-22.570313-.003906 0-.007812 0-.011718 0-16.296876 0-29.832032 11.898438-32.160157 27.355469-24.089843 2.554687-43.449219 5.636719-57.605469 9.1875-14.410156 3.609375-29.144531 8.78125-29.148437 19.757813-.007813 10.03125 11.46875 16.445312 39.605469 22.140624zm0 0"/><path d="m481.765625 223.832031c-14.417969-3.554687-34.773437-6.730469-59.1875-9.261719 0-.144531 0-.289062 0-.429687 0-24.46875-19.90625-44.378906-44.375-44.378906-13.730469 0-26.457031 6.289062-34.789063 16.824219-4.304687-2.074219-9.054687-3.175782-13.902343-3.175782-15.160157 0-27.898438 10.566406-31.238281 24.722656-7.203126-.085937-14.4375-.128906-21.589844-.128906-5.128906 0-10.378906.023438-15.667969.070313-5.347656-10.726563-16.457031-17.824219-28.742187-17.824219-1.464844 0-2.914063.097656-4.34375.289062-5.332032-21.433593-24.71875-37.152343-47.589844-37.152343-18.980469 0-35.753906 10.640625-43.921875 27.171875-3.195313-.902344-6.519531-1.367188-9.859375-1.367188-20.023438 0-36.3125 16.292969-36.3125 36.316406 0 1.492188.089844 2.976563.269531 4.441407-12.769531 2.214843-23.035156 4.648437-30.589844 7.257812-5.074219 1.753907-18.5625 6.414063-18.5625 16.769531 0 10.132813 12.824219 14.722657 17.652344 16.449219 8.566406 3.0625 20.847656 5.894531 36.511719 8.414063 28.609375 4.597656 68.164062 8.039062 112.171875 9.78125-.589844 1.53125-1.078125 3.109375-1.441407 4.738281-18.9375.242187-45.503906 1.28125-74.351562 2.917969-4.136719.234375-7.300781 3.777344-7.0625 7.914062.234375 4.136719 3.804688 7.277344 7.910156 7.0625 32.15625-1.824218 61.390625-2.898437 80.203125-2.949218 4.136719-.011719 7.480469-3.371094 7.480469-7.507813 0-10.5 8.542969-19.039063 19.042969-19.039063 3.242187 0 6.445312.832032 9.261719 2.40625 1.984374 1.105469 4.359374 1.257813 6.464843.410157 2.105469-.847657 3.714844-2.605469 4.371094-4.777344 3.964844-13.046875 15.796875-21.8125 29.441406-21.8125 14.992188 0 27.738281 10.703125 30.304688 25.453125.460937 2.660156 2.3125 4.863281 4.851562 5.773438 2.542969.914062 5.375.390624 7.421875-1.367188 3.34375-2.871094 7.613282-4.453125 12.015625-4.453125 10.1875 0 18.476563 8.289063 18.476563 18.472656 0 1.675781-.230469 3.347657-.683594 4.972657-.585938 2.097656-.230469 4.339843.96875 6.15625 1.203125 1.8125 3.132812 3.015624 5.289062 3.296874 31.058594 4.035157 44.035157 8.289063 49.285157 10.738282-5.804688 2.710937-21.070313 7.636718-59.835938 12.011718-38.335937 4.324219-87.96875 6.707032-139.753906 6.707032-51.789063 0-101.421875-2.382813-139.757813-6.707032-39.292968-4.433593-54.441406-9.433593-60.070312-12.121093 6.3125-3.15625 22.640625-8.335938 56.253906-11.472657 7.390625-.6875 16.273438-1.402343 26.417969-2.125 4.128906-.292968 7.242187-3.878906 6.949219-8.011718-.296875-4.132813-3.871094-7.246094-8.015625-6.949219-10.25.730469-19.246094 1.453125-26.742188 2.148437-20.066406 1.875-37.152343 4.777344-49.410156 8.402344-9.867187 2.917969-22.984375 7.96875-22.984375 18.113282 0 9.078124 8.242188 18.511718 68.035156 25.984374 39.9375 4.988282 92.96875 7.738282 149.324219 7.738282s109.386719-2.75 149.320313-7.738282c59.792968-7.472656 68.035156-16.90625 68.035156-25.984374 0-11.660157-16.304688-18.714844-57.632813-24.59375.003907-.1875.003907-.375.003907-.566407 0-5.234375-1.210938-10.191406-3.363282-14.609375 37.050782-2.167968 68.757813-5.535156 92.214844-9.800781 32.71875-5.949219 46.0625-12.753906 46.0625-23.476563 0-11.191406-15.28125-16.464843-30.234375-20.144531zm-24.785156 29.949219c-24.628907 4.050781-57.585938 7.199219-95.308594 9.105469-.371094.019531-.730469.074219-1.085937.144531-4.980469-2.941406-10.777344-4.640625-16.96875-4.640625-4.304688 0-8.539063.832031-12.476563 2.417969-7.027344-16.59375-23.394531-27.824219-42.117187-27.824219-17.546876 0-33.074219 9.742187-40.773438 24.921875-2.851562-.761719-5.800781-1.148438-8.769531-1.148438-7.929688 0-15.234375 2.730469-21.027344 7.296876-.277344-.042969-.554687-.070313-.84375-.082032-44.074219-1.480468-83.121094-4.558594-112.910156-8.902344-29.695313-4.332031-41.5625-8.710937-46.136719-11.09375 4.371094-2.277343 15.410156-6.378906 42.320312-10.519531 2.253907-.347656 4.226563-1.699219 5.359376-3.675781 1.136718-1.976562 1.3125-4.359375.480468-6.480469-.980468-2.492187-1.480468-5.113281-1.480468-7.792969 0-11.753906 9.5625-21.316406 21.316406-21.316406 3.628906 0 7.21875.933594 10.371094 2.695313 1.980468 1.109375 4.355468 1.257812 6.464843.410156 2.101563-.847656 3.710938-2.605469 4.371094-4.777344 4.382813-14.433593 17.476563-24.132812 32.574219-24.132812 18.054687 0 32.980468 14.105469 33.984375 32.113281.140625 2.488281 1.507812 4.746094 3.648437 6.023438 2.140625 1.277343 4.78125 1.402343 7.035156.34375 2.28125-1.074219 4.726563-1.617188 7.261719-1.617188 7.609375 0 14.371094 5.105469 16.441407 12.421875.917968 3.226563 3.863281 5.453125 7.214843 5.453125h.085938c6.980469-.078125 13.933593-.121094 20.667969-.121094 9.324218 0 18.785156.074219 28.125.21875 2.023437.023438 3.980468-.757812 5.414062-2.191406 1.433594-1.429688 2.230469-3.382812 2.203125-5.410156 0-.035156-.003906-.121094-.007813-.195313.042969-9.386719 7.695313-17.011719 17.09375-17.011719 4.105469 0 8.074219 1.480469 11.179688 4.167969 1.726562 1.496094 4.042969 2.125 6.289062 1.703125 2.246094-.421875 4.179688-1.84375 5.25-3.863281 5.113282-9.65625 15.066407-15.65625 25.976563-15.65625 16.195313 0 29.375 13.175781 29.375 29.375 0 1.902344-.1875 3.824219-.558594 5.707031-.410156 2.082032.082031 4.234375 1.347657 5.933594 1.269531 1.699219 3.191406 2.78125 5.304687 2.980469 50.8125 4.824219 73.707031 11.253906 81.199219 15.175781-4.074219 2.140625-14.09375 5.929688-37.890625 9.84375zm0 0"/><path d="m86.996094 360.183594c-7.269532-.703125-14.277344-1.472656-20.820313-2.292969-4.117187-.511719-7.859375 2.402344-8.371093 6.511719-.515626 4.113281 2.402343 7.859375 6.511718 8.375 6.679688.835937 13.828125 1.621094 21.238282 2.335937.242187.027344.488281.039063.726562.039063 3.816406 0 7.082031-2.902344 7.457031-6.78125.402344-4.125-2.621093-7.789063-6.742187-8.1875zm0 0"/><path d="m368.539062 357.890625c-40.535156 5.066406-94.226562 7.855469-151.179687 7.855469-36.410156 0-72.316406-1.164063-103.847656-3.367188-4.148438-.292968-7.714844 2.824219-8.003907 6.957032-.289062 4.132812 2.828126 7.714843 6.957032 8.003906 31.871094 2.230468 68.144531 3.40625 104.894531 3.40625 57.558594 0 111.90625-2.832032 153.039063-7.972656 4.109374-.511719 7.027343-4.261719 6.511718-8.371094-.511718-4.109375-4.265625-7.015625-8.371094-6.511719zm0 0"/></svg>