<svg height="512pt" viewBox="0 -131 512 512" width="512pt" xmlns="http://www.w3.org/2000/svg"><path d="m95.390625 249.355469h-64.078125c-4.144531 0-7.5-3.359375-7.5-7.5s3.355469-7.5 7.5-7.5h64.078125c4.144531 0 7.5 3.359375 7.5 7.5s-3.355469 7.5-7.5 7.5zm0 0"/><path d="m299.957031 249.355469h-171.648437c-4.140625 0-7.5-3.359375-7.5-7.5s3.359375-7.5 7.5-7.5h171.648437c4.144531 0 7.5 3.359375 7.5 7.5s-3.355469 7.5-7.5 7.5zm0 0"/><path d="m311.917969 224.480469h-300.886719c-4.140625 0-7.5-3.359375-7.5-7.5s3.359375-7.5 7.5-7.5h300.886719c4.140625 0 7.5 3.359375 7.5 7.5s-3.359375 7.5-7.5 7.5zm0 0"/><path d="m313.332031 199.617188h-305.832031c-4.144531 0-7.5-3.359376-7.5-7.5 0-4.144532 3.355469-7.5 7.5-7.5h305.832031c4.144531 0 7.5 3.355468 7.5 7.5 0 4.140624-3.355469 7.5-7.5 7.5zm0 0"/><path d="m304.992188 174.742188h-272.441407c-4.144531 0-7.5-3.359376-7.5-7.5 0-4.144532 3.355469-7.5 7.5-7.5h272.441407c4.144531 0 7.5 3.355468 7.5 7.5 0 4.140624-3.355469 7.5-7.5 7.5zm0 0"/><path d="m280.339844 149.867188h-223.636719c-4.144531 0-7.5-3.359376-7.5-7.5 0-4.144532 3.355469-7.5 7.5-7.5h223.636719c4.140625 0 7.5 3.355468 7.5 7.5 0 4.140624-3.359375 7.5-7.5 7.5zm0 0"/><path d="m246.191406 125.003906h-179.054687c-4.144531 0-7.5-3.359375-7.5-7.5 0-4.144531 3.355469-7.5 7.5-7.5h179.054687c4.140625 0 7.5 3.355469 7.5 7.5 0 4.140625-3.359375 7.5-7.5 7.5zm0 0"/><path d="m223.257812 100.128906h-135.371093c-4.144531 0-7.5-3.359375-7.5-7.5 0-4.144531 3.355469-7.5 7.5-7.5h135.371093c4.140626 0 7.5 3.355469 7.5 7.5 0 4.140625-3.359374 7.5-7.5 7.5zm0 0"/><path d="m349.152344 238.382812h-8.570313c-4.140625 0-7.5-3.359374-7.5-7.5 0-4.140624 3.359375-7.5 7.5-7.5h8.570313c4.144531 0 7.5 3.359376 7.5 7.5 0 4.140626-3.355469 7.5-7.5 7.5zm0 0"/><path d="m487.898438 238.382812h-112.898438c-4.144531 0-7.5-3.359374-7.5-7.5 0-4.140624 3.355469-7.5 7.5-7.5h112.898438c4.140624 0 7.5 3.359376 7.5 7.5 0 4.140626-3.359376 7.5-7.5 7.5zm0 0"/><path d="m501.339844 213.507812h-154.734375c-4.140625 0-7.5-3.359374-7.5-7.5 0-4.140624 3.359375-7.5 7.5-7.5h154.734375c4.144531 0 7.5 3.359376 7.5 7.5 0 4.140626-3.359375 7.5-7.5 7.5zm0 0"/><path d="m504.5 188.644531h-155.183594c-4.140625 0-7.5-3.359375-7.5-7.5s3.359375-7.5 7.5-7.5h155.183594c4.144531 0 7.5 3.359375 7.5 7.5s-3.355469 7.5-7.5 7.5zm0 0"/><path d="m498.914062 163.769531h-157.277343c-4.144531 0-7.5-3.359375-7.5-7.5 0-4.144531 3.355469-7.5 7.5-7.5h157.277343c4.144532 0 7.5 3.355469 7.5 7.5 0 4.140625-3.355468 7.5-7.5 7.5zm0 0"/><path d="m481.632812 138.894531h-162.765624c-4.140626 0-7.5-3.359375-7.5-7.5 0-4.144531 3.359374-7.5 7.5-7.5h162.765624c4.144532 0 7.5 3.355469 7.5 7.5 0 4.140625-3.359374 7.5-7.5 7.5zm0 0"/><path d="m433.804688 114.027344h-153.296876c-4.144531 0-7.5-3.355469-7.5-7.5 0-4.140625 3.355469-7.5 7.5-7.5h153.296876c4.140624 0 7.5 3.359375 7.5 7.5 0 4.144531-3.359376 7.5-7.5 7.5zm0 0"/><path d="m429.027344 89.152344h-172.59375c-4.144532 0-7.5-3.355469-7.5-7.5 0-4.140625 3.355468-7.5 7.5-7.5h172.597656c4.140625 0 7.5 3.359375 7.5 7.5 0 4.144531-3.359375 7.5-7.503906 7.5zm0 0"/><path d="m349.316406 64.738281h-174.304687c-4.144531 0-7.5-3.355469-7.5-7.5 0-4.140625 3.355469-7.5 7.5-7.5h174.308593c4.140626 0 7.5 3.359375 7.5 7.5 0 4.144531-3.359374 7.5-7.503906 7.5zm0 0"/><path d="m419.285156 64.738281h-38.984375c-4.140625 0-7.5-3.355469-7.5-7.5 0-4.140625 3.359375-7.5 7.5-7.5h38.984375c4.144532 0 7.5 3.359375 7.5 7.5 0 4.144531-3.355468 7.5-7.5 7.5zm0 0"/><path d="m402.839844 39.875h-211.371094c-4.144531 0-7.5-3.359375-7.5-7.5s3.355469-7.5 7.5-7.5h211.371094c4.140625 0 7.5 3.359375 7.5 7.5s-3.359375 7.5-7.5 7.5zm0 0"/><path d="m375.84375 15h-157.371094c-4.140625 0-7.5-3.359375-7.5-7.5s3.359375-7.5 7.5-7.5h157.371094c4.144531 0 7.5 3.359375 7.5 7.5s-3.355469 7.5-7.5 7.5zm0 0"/></svg>