<svg height="512pt" viewBox="0 -25 512 512" width="512pt" xmlns="http://www.w3.org/2000/svg"><path d="m438.886719 105.359375c0 54.050781-43.816407 97.867187-97.867188 97.867187-54.046875 0-97.863281-43.816406-97.863281-97.867187s43.816406-97.863281 97.863281-97.863281c54.050781 0 97.867188 43.8125 97.867188 97.863281zm0 0" fill="#f6cb43"/><path d="m243.484375 97.355469c-4.417969 53.871093 35.664063 101.117187 89.535156 105.539062 47.25 3.875 89.410157-26.484375 102.03125-70.355469-6.355469.746094-12.871093.878907-19.492187.332032-53.871094-4.417969-93.957032-51.667969-89.535156-105.539063.542968-6.621093 1.734374-13.027343 3.503906-19.179687-45.339844 5.316406-82.167969 41.964844-86.042969 89.203125zm0 0" fill="#fab03c"/><path d="m77.726562 148.472656c4.34375-71.78125 63.921876-128.65625 136.796876-128.65625 58.773437 0 108.894531 36.996094 128.375 88.96875 50.613281.613282 91.457031 41.808594 91.457031 92.5625 0 51.136719-41.457031 92.59375-92.59375 92.59375-21.40625 0-239.5 0-261.496094 0-40.1875 0-72.765625-32.578125-72.765625-72.765625 0-39.335937 31.214844-71.363281 70.226562-72.703125zm0 0" fill="#a09d9c"/><path d="m434.351562 201.351562c0 48.683594-37.578124 88.605469-85.332031 92.3125 11.875-15.5625 18.917969-35.003906 18.917969-56.082031 0-50.757812-40.851562-91.949219-91.460938-92.570312-19.472656-51.964844-69.601562-88.957031-128.375-88.957031-10.242187 0-20.222656 1.121093-29.820312 3.261718 24.742188-24.425781 58.71875-39.496094 96.234375-39.496094 58.777344 0 108.90625 36.992188 128.378906 88.96875 50.617188.609376 91.457031 41.800782 91.457031 92.5625zm0 0" fill="#82807f"/><path d="m454.296875 189.941406c-3.109375-51.316406-45.703125-91.976562-97.800781-91.976562-42.019532 0-77.851563 26.449218-91.777344 63.605468-36.183594.4375-65.386719 29.886719-65.386719 66.175782 0 36.558594 29.636719 66.195312 66.195313 66.195312h186.949218c28.730469 0 52.023438-23.289062 52.023438-52.023437 0-28.121094-22.316406-51.015625-50.203125-51.976563zm0 0" fill="#f0f5f7"/><path d="m504.5 241.921875c0 28.507813-22.9375 51.65625-51.355469 52.011719 4.636719-7.78125 7.308594-16.890625 7.308594-26.605469 0-28.121094-22.316406-51.015625-50.203125-51.976563-3.097656-51.3125-45.703125-91.984374-97.796875-91.984374-8.710937 0-17.164063 1.132812-25.203125 3.28125 17.710938-17.71875 42.195312-28.683594 69.25-28.683594 52.09375 0 94.6875 40.667968 97.796875 91.980468 27.886719.960938 50.203125 23.855469 50.203125 51.976563zm0 0" fill="#dde9ed"/><path d="m287.886719 363.847656c0 11.722656 9.5 21.222656 21.222656 21.222656s21.226563-9.5 21.226563-21.222656c0-7.695312-9.140626-22.792968-15.425782-32.265625-2.753906-4.148437-8.847656-4.148437-11.601562 0-6.285156 9.472657-15.421875 24.570313-15.421875 32.265625zm0 0" fill="#a0ecff"/><path d="m287.886719 363.847656c0 11.71875 9.5 21.222656 21.222656 21.222656 2.941406 0 5.738281-.597656 8.289063-1.675781-7.613282-3.226562-12.945313-10.765625-12.945313-19.546875 0-6.726562 6.984375-19.113281 12.9375-28.453125-.851563-1.335937-1.683594-2.613281-2.46875-3.796875-2.757813-4.160156-8.851563-4.171875-11.609375-.015625-6.285156 9.472657-15.425781 24.570313-15.425781 32.265625zm0 0" fill="#60daff"/><path d="m192.109375 363.847656c0 11.722656 9.503906 21.222656 21.226563 21.222656 11.722656 0 21.222656-9.5 21.222656-21.222656 0-7.695312-9.140625-22.792968-15.421875-32.265625-2.753907-4.148437-8.847657-4.148437-11.601563 0-6.285156 9.472657-15.425781 24.570313-15.425781 32.265625zm0 0" fill="#a0ecff"/><path d="m192.113281 363.847656c0 11.71875 9.496094 21.222656 21.222657 21.222656 2.9375 0 5.738281-.597656 8.285156-1.675781-7.609375-3.226562-12.941406-10.765625-12.941406-19.546875 0-6.726562 6.980468-19.113281 12.9375-28.453125-.851563-1.335937-1.683594-2.613281-2.472657-3.796875-2.753906-4.160156-8.847656-4.171875-11.609375-.015625-6.28125 9.472657-15.421875 24.570313-15.421875 32.265625zm0 0" fill="#60daff"/><path d="m239.996094 433.550781c0 11.722657 9.503906 21.226563 21.226562 21.226563s21.222656-9.503906 21.222656-21.226563c0-7.691406-9.140624-22.792969-15.421874-32.261719-2.753907-4.152343-8.847657-4.152343-11.601563 0-6.285156 9.472657-15.425781 24.570313-15.425781 32.261719zm0 0" fill="#a0ecff"/><path d="m240 433.554688c0 11.71875 9.496094 21.222656 21.222656 21.222656 2.9375 0 5.738282-.597656 8.289063-1.679688-7.613281-3.222656-12.945313-10.765625-12.945313-19.542968 0-6.726563 6.984375-19.117188 12.9375-28.453126-.851562-1.339843-1.683594-2.613281-2.472656-3.800781-2.753906-4.15625-8.847656-4.167969-11.605469-.011719-6.285156 9.46875-15.425781 24.570313-15.425781 32.265626zm0 0" fill="#60daff"/><path d="m144.222656 433.550781c0 11.722657 9.503906 21.226563 21.226563 21.226563 11.722656 0 21.222656-9.503906 21.222656-21.226563 0-7.691406-9.140625-22.792969-15.425781-32.261719-2.753906-4.152343-8.84375-4.152343-11.597656 0-6.285157 9.472657-15.425782 24.570313-15.425782 32.261719zm0 0" fill="#a0ecff"/><path d="m144.226562 433.554688c0 11.71875 9.496094 21.222656 21.222657 21.222656 2.9375 0 5.738281-.597656 8.285156-1.679688-7.609375-3.222656-12.945313-10.765625-12.945313-19.542968 0-6.726563 6.984376-19.117188 12.9375-28.453126-.851562-1.339843-1.683593-2.613281-2.46875-3.800781-2.753906-4.15625-8.851562-4.167969-11.609374-.011719-6.285157 9.46875-15.421876 24.570313-15.421876 32.265626zm0 0" fill="#60daff"/><path d="m461.191406 183.039062c-2.195312-17.96875-8.902344-34.5-18.929687-48.464843 1.925781-6.695313 3.195312-13.605469 3.769531-20.597657 2.125-25.910156-5.351562-51.578124-21.0625-72.28125-2.503906-3.296874-7.207031-3.945312-10.507812-1.4375-3.300782 2.503907-3.945313 7.207032-1.441407 10.507813 13.472657 17.75 19.886719 39.761719 18.0625 61.980469-.210937 2.589844-.539062 5.160156-.96875 7.710937-19.070312-18.585937-45.105469-29.992187-73.617187-29.992187-4.425782 0-8.8125.285156-13.144532.820312-11.625-22.796875-29.066406-42.121094-50.667968-56.03125-1.585938-1.019531-3.195313-2.003906-4.8125-2.960937 17.398437-12.632813 38.929687-18.769531 60.539062-16.996094 15.234375 1.25 29.976563 6.363281 42.628906 14.789063 3.445313 2.296874 8.101563 1.359374 10.398438-2.085938 2.292969-3.449219 1.359375-8.105469-2.085938-10.398438-14.765624-9.828124-31.957031-15.796874-49.714843-17.253906-27.691407-2.265625-55.261719 6.589844-76.453125 24.398438-18.359375-8.164063-38.292969-12.429688-58.664063-12.429688-35.078125 0-68.910156 12.730469-95.261719 35.84375-3.117187 2.734375-3.425781 7.472656-.695312 10.585938 2.730469 3.113281 7.46875 3.421875 10.585938.691406 23.613281-20.710938 53.933593-32.121094 85.371093-32.121094 24.949219 0 49.167969 7.105469 70.042969 20.550782 18.171875 11.703124 33.058594 27.679687 43.4375 46.492187-11.46875 3.207031-22.351562 8.359375-32.253906 15.347656-16.066406 11.335938-28.503906 26.6875-36.191406 44.601563-14.976563 1.226562-29.359376 7.039062-40.964844 16.640625-12.742188 10.539062-21.65625 25.199219-25.105469 41.28125-.871094 4.050781 1.710937 8.039062 5.757813 8.90625 4.054687.871093 8.039062-1.710938 8.90625-5.761719 2.746093-12.796875 9.847656-24.46875 20-32.867188 10.277343-8.503906 23.296874-13.277343 36.65625-13.4375 3.09375-.039062 5.847656-1.96875 6.933593-4.867187 13.167969-35.132813 47.230469-58.738281 84.753907-58.738281 47.761718 0 87.433593 37.308594 90.316406 84.933594.230468 3.859374 3.363281 6.910156 7.226562 7.039062 24.09375.832031 42.964844 20.367188 42.964844 44.480469 0 24.550781-19.972656 44.523437-44.523438 44.523437h-186.949218c-25.851563 0-49-17.3125-56.296875-42.097656-1.171875-3.972656-5.339844-6.242188-9.316407-5.074219-3.972656 1.167969-6.242187 5.335938-5.074218 9.3125 4.542968 15.429688 13.980468 28.546875 26.296875 37.859375h-140.871094c-35.988281 0-65.265625-29.277344-65.265625-65.265625 0-17.035156 6.523438-33.152343 18.371094-45.382812 11.820312-12.199219 27.664062-19.242188 44.609375-19.824219 3.867187-.132812 6.996093-3.183594 7.230469-7.042969 1.445312-23.902343 9.492187-46.894531 23.269531-66.484375 2.382812-3.386718 1.570312-8.066406-1.820313-10.449218-3.386718-2.382813-8.066406-1.566407-10.445312 1.820312-14.117188 20.074219-22.847656 43.347656-25.433594 67.671875-18.304688 2.148437-35.214844 10.484375-48.183594 23.875-14.574218 15.042969-22.597656 34.867187-22.597656 55.816406 0 44.257813 36.007812 80.265625 80.265625 80.265625h372.210937c32.820313 0 59.523438-26.703125 59.523438-59.523437 0-29.988281-21.832031-54.683594-50.808594-58.878907zm0 0"/><path d="m412.671875 185.078125c.460937 2.402344.769531 4.867187.921875 7.328125.238281 3.980469 3.542969 7.046875 7.476562 7.046875.152344 0 .308594-.003906.460938-.011719 4.136719-.253906 7.285156-3.808594 7.03125-7.941406-.1875-3.101562-.578125-6.214844-1.160156-9.25-.78125-4.066406-4.707032-6.730469-8.78125-5.949219-4.066406.78125-6.730469 4.710938-5.949219 8.777344zm0 0"/><path d="m392.535156 133.390625c-3.585937-2.070313-8.171875-.839844-10.242187 2.746094-2.070313 3.585937-.84375 8.175781 2.742187 10.246093 8.574219 4.949219 15.761719 12.066407 20.785156 20.578126 1.398438 2.371093 3.898438 3.6875 6.464844 3.6875 1.296875 0 2.609375-.335938 3.808594-1.039063 3.566406-2.105469 4.75-6.707031 2.644531-10.273437-6.335937-10.730469-15.394531-19.703126-26.203125-25.945313zm0 0"/><path d="m458.40625 333.675781c-.011719 0-.019531 0-.027344 0h-.132812c-4.140625.015625-7.488282 3.382813-7.472656 7.527344.015624 4.132813 3.371093 7.472656 7.5 7.472656h.027343.132813c4.140625-.019531 7.488281-3.386719 7.472656-7.53125-.015625-4.132812-3.371094-7.46875-7.5-7.46875zm0 0"/><path d="m418.484375 341.144531c-.015625-4.132812-3.371094-7.46875-7.5-7.46875-.007813 0-.019531 0-.027344 0h-.132812c-4.140625.015625-7.484375 3.382813-7.472657 7.527344.015626 4.132813 3.371094 7.472656 7.5 7.472656h.03125.128907c4.140625-.019531 7.488281-3.386719 7.472656-7.53125zm0 0"/><path d="m144.292969 348.675781h.128906c4.140625-.019531 7.488281-3.386719 7.472656-7.53125-.015625-4.132812-3.371093-7.46875-7.5-7.46875-.007812 0-.019531 0-.027343 0h-.132813c-4.140625.015625-7.484375 3.382813-7.46875 7.527344.015625 4.128906 3.367187 7.472656 7.496094 7.472656zm0 0"/><path d="m104.472656 341.144531c-.015625-4.132812-3.367187-7.46875-7.496094-7.46875-.011718 0-.023437 0-.03125 0h-.128906c-4.144531.015625-7.488281 3.382813-7.472656 7.527344.015625 4.132813 3.371094 7.472656 7.5 7.472656h.027344.132812c4.140625-.019531 7.484375-3.386719 7.46875-7.53125zm0 0"/><path d="m420.132812 371.945312c-.011718 0-.019531 0-.027343 0h-.132813c-4.140625.019532-7.484375 3.386719-7.46875 7.53125.015625 4.132813 3.367188 7.46875 7.496094 7.46875h.03125.128906c4.140625-.015624 7.488282-3.382812 7.472656-7.527343-.015624-4.132813-3.371093-7.472657-7.5-7.472657zm0 0"/><path d="m380.210938 379.417969c-.015626-4.132813-3.371094-7.472657-7.5-7.472657-.007813 0-.019532 0-.027344 0h-.128906c-4.144532.019532-7.488282 3.386719-7.472657 7.53125.015625 4.132813 3.367188 7.46875 7.496094 7.46875h.03125.128906c4.144531-.015624 7.488281-3.382812 7.472657-7.527343zm0 0"/><path d="m106.121094 371.945312c-.007813 0-.019532 0-.027344 0h-.132812c-4.140626.019532-7.484376 3.386719-7.472657 7.53125.019531 4.132813 3.371094 7.46875 7.5 7.46875h.03125.128907c4.140624-.015624 7.488281-3.382812 7.472656-7.527343-.015625-4.132813-3.371094-7.472657-7.5-7.472657zm0 0"/><path d="m66.199219 379.417969c-.015625-4.140625-3.394531-7.503907-7.527344-7.472657h-.128906c-4.144531.019532-7.488281 3.386719-7.472657 7.53125.015626 4.132813 3.371094 7.46875 7.5 7.46875h.027344.128906c4.144532-.015624 7.488282-3.382812 7.472657-7.527343zm0 0"/><path d="m381.859375 410.21875c-.011719 0-.019531 0-.03125 0h-.128906c-4.140625.015625-7.484375 3.386719-7.472657 7.527344.015626 4.136718 3.371094 7.472656 7.5 7.472656h.03125.128907c4.140625-.015625 7.484375-3.386719 7.472656-7.527344-.015625-4.132812-3.371094-7.472656-7.5-7.472656zm0 0"/><path d="m334.4375 410.21875c-.007812 0-.019531 0-.027344 0h-.132812c-4.140625.015625-7.484375 3.386719-7.46875 7.527344.015625 4.136718 3.367187 7.472656 7.496094 7.472656h.03125.128906c4.140625-.015625 7.488281-3.386719 7.472656-7.527344-.015625-4.132812-3.371094-7.472656-7.5-7.472656zm0 0"/><path d="m67.847656 410.21875c-.007812 0-.019531 0-.027344 0h-.128906c-4.144531.015625-7.488281 3.386719-7.472656 7.527344.015625 4.136718 3.371094 7.472656 7.5 7.472656h.027344.128906c4.144531-.015625 7.488281-3.386719 7.472656-7.527344-.015625-4.132812-3.371094-7.472656-7.5-7.472656zm0 0"/><path d="m20.429688 410.21875c-.011719 0-.023438 0-.03125 0h-.128907c-4.140625.015625-7.488281 3.386719-7.472656 7.527344.015625 4.136718 3.371094 7.472656 7.5 7.472656h.027344.128906c4.144531-.015625 7.488281-3.386719 7.472656-7.527344-.015625-4.132812-3.367187-7.472656-7.496093-7.472656zm0 0"/><path d="m337.835938 363.847656c0-2.789062 0-11.277344-16.675782-36.410156-2.6875-4.050781-7.191406-6.46875-12.050781-6.46875-4.855469 0-9.363281 2.417969-12.050781 6.46875-16.675782 25.132812-16.675782 33.621094-16.675782 36.410156 0 15.839844 12.886719 28.726563 28.726563 28.726563s28.726563-12.886719 28.726563-28.726563zm-28.726563 13.722656c-7.566406 0-13.726563-6.15625-13.726563-13.722656 0-3.070312 3.605469-12.085937 13.726563-27.441406 10.117187 15.355469 13.726563 24.371094 13.726563 27.441406 0 7.566406-6.15625 13.722656-13.726563 13.722656zm0 0"/><path d="m242.0625 363.847656c0-2.789062 0-11.28125-16.675781-36.410156-2.6875-4.050781-7.191407-6.46875-12.050781-6.46875-4.859376 0-9.363282 2.417969-12.050782 6.46875-16.675781 25.132812-16.675781 33.621094-16.675781 36.410156 0 15.839844 12.886719 28.726563 28.726563 28.726563 15.839843 0 28.726562-12.886719 28.726562-28.726563zm-28.726562 13.722656c-7.566407 0-13.726563-6.15625-13.726563-13.722656 0-3.070312 3.605469-12.082031 13.726563-27.4375 10.117187 15.351563 13.726562 24.363282 13.726562 27.4375 0 7.566406-6.160156 13.722656-13.726562 13.722656zm0 0"/><path d="m261.222656 390.675781c-4.859375 0-9.363281 2.417969-12.050781 6.464844-16.675781 25.132813-16.675781 33.621094-16.675781 36.410156 0 15.839844 12.886718 28.726563 28.726562 28.726563s28.726563-12.886719 28.726563-28.726563c0-2.789062 0-11.273437-16.675781-36.40625-2.6875-4.050781-7.191407-6.46875-12.050782-6.46875zm0 56.601563c-7.566406 0-13.726562-6.15625-13.726562-13.726563 0-3.070312 3.605468-12.082031 13.726562-27.4375 10.117188 15.355469 13.726563 24.367188 13.726563 27.4375-.003907 7.566407-6.160157 13.726563-13.726563 13.726563zm0 0"/><path d="m165.449219 390.675781c-4.859375 0-9.363281 2.417969-12.050781 6.464844-16.675782 25.132813-16.675782 33.621094-16.675782 36.410156 0 15.839844 12.886719 28.726563 28.722656 28.726563 15.839844 0 28.726563-12.886719 28.726563-28.726563 0-2.789062 0-11.273437-16.675781-36.410156-2.683594-4.046875-7.191406-6.464844-12.046875-6.464844zm-.003907 56.601563c-7.566406 0-13.722656-6.15625-13.722656-13.726563 0-3.070312 3.605469-12.082031 13.726563-27.4375 10.117187 15.355469 13.722656 24.367188 13.722656 27.4375 0 7.566407-6.15625 13.726563-13.726563 13.726563zm0 0"/></svg>