<svg height="512pt" viewBox="0 -57 512 512" width="512pt" xmlns="http://www.w3.org/2000/svg"><path d="m437.226562 130.75c-4.164062-68.765625-61.242187-123.25-131.054687-123.25-56.304687 0-104.324219 35.441406-122.984375 85.230469-48.484375.585937-87.613281 40.050781-87.613281 88.675781 0 48.988281 39.710937 88.703125 88.703125 88.703125h250.511718c38.5 0 69.710938-31.210937 69.710938-69.710937 0-37.683594-29.90625-68.363282-67.273438-69.648438zm0 0" fill="#c4e1e8"/><path d="m504.503906 200.398438c0 38.5-31.214844 69.714843-69.714844 69.714843h-5.402343c5.054687-9.648437 7.914062-20.636719 7.914062-32.28125 0-37.683593-29.902343-68.367187-67.273437-69.652343-4.164063-68.761719-61.242188-123.253907-131.058594-123.253907-9.414062 0-18.59375.992188-27.4375 2.875 23.882812-24.835937 57.453125-40.296875 94.640625-40.296875 69.8125 0 126.894531 54.480469 131.054687 123.253906 37.375 1.273438 67.277344 31.957032 67.277344 69.640626zm0 0" fill="#a4d5dd"/><path d="m76.46875 170.480469c2.976562-49.164063 43.78125-88.117188 93.691406-88.117188 40.253906 0 74.582032 25.339844 87.925782 60.933594 34.664062.417969 62.636718 28.632813 62.636718 63.398437 0 35.023438-28.390625 63.414063-63.414062 63.414063-14.660156 0-164.03125 0-179.097656 0-27.523438 0-49.835938-22.3125-49.835938-49.835937 0-26.941407 21.378906-48.875 48.09375-49.792969zm0 0" fill="#f0f5f7"/><path d="m320.726562 206.699219c0 34.722656-27.921874 62.929687-62.542968 63.398437 10.378906-11.296875 16.707031-26.347656 16.707031-42.886718 0-34.757813-27.96875-62.976563-62.640625-63.398438-13.339844-35.585938-47.667969-60.929688-87.925781-60.929688-4.757813 0-9.425781.359376-13.996094 1.039063 16.238281-13.464844 37.085937-21.554687 59.828125-21.554687 40.257812 0 74.585938 25.332031 87.925781 60.933593 34.671875.421875 62.644531 28.628907 62.644531 63.398438zm0 0" fill="#dde9ed"/><path d="m226.644531 255.921875c0 60.515625-49.054687 109.574219-109.570312 109.574219s-109.574219-49.058594-109.574219-109.574219 49.058594-109.570313 109.574219-109.570313 109.570312 49.054688 109.570312 109.570313zm0 0" fill="#60daff"/><path d="m368.171875 270.109375c0-4.140625-3.355469-7.5-7.5-7.5h-59.824219c16.644532-12.988281 27.375-33.214844 27.375-55.914063 0-18.792968-7.273437-36.496093-20.488281-49.851562-12.003906-12.136719-27.644531-19.417969-44.492187-20.808594-12.167969-28.113281-36.53125-48.96875-65.355469-57.246094 7.855469-14.101562 18.53125-26.734374 31.203125-36.835937 3.238281-2.582031 3.769531-7.300781 1.1875-10.539063-2.582032-3.242187-7.300782-3.773437-10.539063-1.191406-15.429687 12.300782-28.222656 27.945313-37.1875 45.425782-4.082031-.507813-8.214843-.785157-12.390625-.785157-45.140625 0-84.574218 29.675781-97.222656 72.628907-42.738281 17.464843-72.9375 59.484374-72.9375 108.429687 0 64.554687 52.519531 117.074219 117.074219 117.074219 17.335937 0 34.039062-3.710938 49.644531-11.027344 3.75-1.757812 5.363281-6.222656 3.605469-9.976562-1.757813-3.75-6.222657-5.363282-9.976563-3.605469-13.597656 6.375-28.15625 9.609375-43.277344 9.609375-56.28125 0-102.070312-45.789063-102.070312-102.074219 0-56.28125 45.789062-102.074219 102.074219-102.074219 56.28125 0 102.074219 45.792969 102.074219 102.074219 0 28.664063-12.164063 56.175781-33.371094 75.492187-3.0625 2.789063-3.285156 7.53125-.496094 10.59375s7.53125 3.285157 10.597656.496094c18.902344-17.214844 31.535156-40.113281 36.226563-64.894531h128.566406c4.144531 0 7.5-3.355469 7.5-7.5zm-125.671875-7.5h-8.550781c.128906-2.222656.199219-4.449219.199219-6.6875 0-64.554687-52.519532-117.074219-117.074219-117.074219-8.984375 0-17.734375 1.019532-26.144531 2.945313 13.492187-31.148438 44.359374-51.929688 79.230468-51.929688 35.820313 0 68.332032 22.53125 80.902344 56.066407 1.085938 2.894531 3.839844 4.828124 6.929688 4.867187 30.453124.367187 55.230468 25.441406 55.230468 55.894531 0 30.832032-25.082031 55.917969-55.914062 55.917969zm0 0"/><path d="m490.265625 146.707031c-12.417969-12.816406-28.589844-20.820312-46.101563-22.933593-7.535156-69.917969-66.925781-123.773438-137.992187-123.773438-19.460937 0-38.3125 3.96875-56.03125 11.796875-3.789063 1.675781-5.5 6.101563-3.828125 9.890625 1.675781 3.789062 6.105469 5.503906 9.890625 3.832031 15.796875-6.980469 32.609375-10.519531 49.96875-10.519531 65.347656 0 119.621094 51.042969 123.566406 116.203125.234375 3.859375 3.363281 6.910156 7.230469 7.042969 16.152344.554687 31.253906 7.265625 42.519531 18.898437 11.292969 11.65625 17.511719 27.019531 17.511719 43.253907 0 34.300781-27.90625 62.210937-62.210938 62.210937h-41.457031c-4.140625 0-7.5 3.355469-7.5 7.5 0 4.140625 3.359375 7.5 7.5 7.5h41.457031c42.574219 0 77.210938-34.636719 77.210938-77.210937 0-20.152344-7.71875-39.21875-21.734375-53.691407zm0 0"/><path d="m402.46875 123.066406c.582031 0 1.171875-.070312 1.757812-.210937 4.027344-.96875 6.507813-5.015625 5.539063-9.042969-1.414063-5.894531-3.351563-11.695312-5.753906-17.25-1.644531-3.800781-6.054688-5.550781-9.863281-3.90625-3.800782 1.644531-5.550782 6.058594-3.90625 9.863281 2.066406 4.765625 3.726562 9.742188 4.941406 14.796875.824218 3.4375 3.898437 5.75 7.285156 5.75zm0 0"/><path d="m306.171875 32.253906c-4.140625 0-7.5 3.359375-7.5 7.5 0 4.144532 3.359375 7.5 7.5 7.5 25.144531 0 48.609375 10.023438 66.078125 28.226563 1.472656 1.535156 3.441406 2.304687 5.410156 2.304687 1.871094 0 3.738282-.691406 5.195313-2.085937 2.988281-2.871094 3.085937-7.617188.214843-10.605469-20.324218-21.175781-47.632812-32.839844-76.898437-32.839844zm0 0"/><path d="m187.488281 296.441406c1.984375-3.453125.910157-7.816406-2.367187-9.984375l2.421875-1.0625c3.792969-1.667969 5.515625-6.09375 3.847656-9.886719-1.664063-3.789062-6.089844-5.515624-9.882813-3.847656l-11.273437 4.953125c.515625-3-.835937-6.140625-3.625-7.753906-3.144531-1.824219-7.0625-1.101563-9.378906 1.519531l-8.613281-4.953125 5.996093-2.636719c2.722657-1.195312 4.480469-3.890624 4.480469-6.867187 0-2.972656-1.757812-5.667969-4.480469-6.863281l-5.992187-2.636719 8.625-4.960937c1.441406 1.632812 3.496094 2.539062 5.609375 2.539062 1.277343 0 2.570312-.324219 3.753906-1.011719 2.789063-1.617187 4.140625-4.753906 3.625-7.757812l11.273437 4.957031c.980469.429688 2.003907.632812 3.011719.632812 2.886719 0 5.636719-1.671874 6.871094-4.484374 1.667969-3.789063-.054687-8.214844-3.847656-9.882813l-2.417969-1.0625c3.277344-2.167969 4.347656-6.53125 2.359375-9.984375-1.996094-3.472656-6.347656-4.730469-9.878906-2.945312l.289062-2.640626c.449219-4.117187-2.523437-7.820312-6.640625-8.269531-4.113281-.449219-7.820312 2.523438-8.269531 6.640625l-1.332031 12.191406c-2.347656-1.96875-5.765625-2.375-8.570313-.746093-3.132812 1.8125-4.460937 5.542969-3.363281 8.847656l-8.640625 4.972656.710937-6.519531c.320313-2.953125-1.128906-5.816406-3.699218-7.304688-2.570313-1.488281-5.777344-1.316406-8.175782.433594l-5.339843 3.894532v-9.914063c3.425781-.691406 6.003906-3.71875 6.003906-7.347656 0-3.226563-2.035156-5.964844-4.890625-7.027344l9.886719-7.214844c3.347656-2.441406 4.082031-7.132812 1.640625-10.476562-2.441406-3.347657-7.132813-4.082031-10.480469-1.640625l-2.179687 1.59375c-.230469-3.941406-3.484376-7.066406-7.480469-7.066406-3.996094 0-7.253907 3.128906-7.476563 7.070312l-2.191406-1.597656c-3.347656-2.441406-8.039062-1.707032-10.476562 1.640625-2.441407 3.34375-1.707032 8.035156 1.636718 10.476562l9.886719 7.214844c-2.851563 1.0625-4.890625 3.800781-4.890625 7.027344 0 3.632812 2.582031 6.660156 6.011719 7.347656v9.917969l-5.34375-3.902344c-2.402344-1.75-5.609375-1.917969-8.175781-.433594-2.574219 1.488282-4.023438 4.355469-3.699219 7.308594l.710937 6.519531-8.644531-4.972656c1.101563-3.304687-.226563-7.039063-3.359375-8.851563-2.804688-1.625-6.222656-1.222656-8.574219.75l-1.328125-12.191406c-.449218-4.117187-4.148437-7.09375-8.269531-6.644531-4.117187.449219-7.089844 4.152344-6.640625 8.269531l.285156 2.644532c-3.53125-1.789063-7.882812-.527344-9.878906 2.945312-1.984375 3.449219-.914062 7.816406 2.363281 9.984375l-2.417969 1.0625c-3.792968 1.664063-5.515624 6.089844-3.847656 9.882813 1.234375 2.8125 3.984375 4.484374 6.867188 4.484374 1.007812 0 2.035156-.203124 3.015625-.636718l11.273437-4.953125c-.515625 3 .835938 6.140625 3.625 7.753906 1.183594.6875 2.476563 1.011719 3.753906 1.011719 2.109376 0 4.164063-.902344 5.609376-2.539063l8.625 4.964844-5.992188 2.632813c-2.726562 1.199218-4.484375 3.890624-4.484375 6.867187 0 2.972656 1.757813 5.667969 4.484375 6.863281l5.992188 2.636719-8.609376 4.957031c-2.316406-2.625-6.234374-3.34375-9.378906-1.523437-2.789062 1.617187-4.140625 4.753906-3.625 7.757812l-11.273437-4.953125c-3.792969-1.667968-8.21875.054688-9.882813 3.847656-1.667968 3.792969.054688 8.21875 3.847656 9.882813l2.417969 1.066406c-3.277343 2.164063-4.351562 6.53125-2.363281 9.984375 1.386719 2.410156 3.914062 3.761719 6.507812 3.761719 1.140626 0 2.292969-.277344 3.371094-.824219l-.289062 2.644532c-.449219 4.121093 2.523437 7.820312 6.644531 8.269531.273437.03125.550781.046875.820313.046875 3.777343 0 7.027343-2.847656 7.449218-6.6875l1.328125-12.199219c1.359375 1.140625 3.070313 1.769531 4.824219 1.769531 1.273438 0 2.566406-.328125 3.75-1.011718 3.132812-1.816407 4.460938-5.546876 3.359375-8.851563l8.640625-4.96875-.710938 6.515625c-.320312 2.953125 1.128907 5.816406 3.699219 7.304688 1.167969.675781 2.464844 1.007812 3.757813 1.007812 1.558594 0 3.109375-.484375 4.421875-1.441406l5.34375-3.898438v9.914063c-3.429688.691406-6.011719 3.71875-6.011719 7.351562 0 3.222657 2.035156 5.964844 4.890625 7.023438l-9.886719 7.214843c-3.347656 2.441407-4.082031 7.132813-1.636718 10.480469 2.4375 3.34375 7.128906 4.078125 10.476562 1.636719l2.191406-1.597656c.21875 3.945312 3.476563 7.074218 7.476563 7.074218 3.996093 0 7.253906-3.128906 7.476562-7.066406l2.183594 1.589844c1.332031.972656 2.878906 1.441406 4.414063 1.441406 2.3125 0 4.597656-1.066406 6.066406-3.078125 2.4375-3.347656 1.707031-8.039062-1.640625-10.480469l-9.886719-7.214843c2.851562-1.058594 4.890625-3.800781 4.890625-7.023438 0-3.628906-2.578125-6.65625-6.003906-7.351562v-9.910157l5.335937 3.894532c2.402344 1.75 5.605469 1.917968 8.179688.433594 2.570312-1.488282 4.019531-4.355469 3.699218-7.304688l-.710937-6.515625 8.640625 4.96875c-1.097656 3.304687.226562 7.035156 3.359375 8.847656 1.183594.6875 2.476563 1.011719 3.753906 1.011719 1.75 0 3.460938-.625 4.820313-1.765625l1.328125 12.199219c.421875 3.839844 3.671875 6.6875 7.449219 6.6875.269531 0 .542968-.015625.820312-.046875 4.121094-.449219 7.09375-4.152344 6.644531-8.269531l-.289062-2.644532c1.078125.546875 2.230469.824219 3.371093.824219 2.597657 0 5.121094-1.347656 6.511719-3.761719zm-65.996093-29.375c-.019532-.015625-.046876-.023437-.066407-.039062-.289062-.207032-.589843-.390625-.90625-.554688-.050781-.027344-.105469-.050781-.15625-.078125-.300781-.144531-.609375-.273437-.929687-.378906-.027344-.011719-.054688-.023437-.082032-.03125-.324218-.101563-.65625-.179687-.992187-.234375-.089844-.015625-.175781-.03125-.265625-.042969-.308594-.039062-.617188-.066406-.9375-.070312-.027344 0-.054688-.007813-.082031-.007813-.035157 0-.066407.007813-.097657.007813-.308593.003906-.609374.03125-.90625.070312-.101562.011719-.199218.027344-.296874.046875-.324219.054688-.644532.128906-.953126.226563-.058593.015625-.113281.039062-.167968.058593-.28125.097657-.550782.210938-.816406.335938-.078126.039062-.160157.074219-.238282.113281-.289062.15625-.570312.328125-.835937.515625-.035157.023438-.074219.039063-.109375.066406l-3.542969 2.585938.46875-4.316406c.003906-.03125 0-.0625.003906-.089844.035157-.351562.046875-.699219.03125-1.050781-.003906-.0625-.007812-.125-.015625-.1875-.023437-.332031-.0625-.660157-.128906-.992188-.007812-.027343-.011719-.058593-.015625-.089843-.074219-.332032-.175781-.660157-.292969-.984376-.03125-.082031-.0625-.160156-.09375-.242187-.125-.304687-.261718-.601563-.429687-.894531-.023438-.039063-.046875-.070313-.066407-.109375-.164062-.269531-.339843-.523438-.53125-.769531-.054687-.070313-.109374-.140626-.167968-.207032-.214844-.261718-.445313-.511718-.691406-.734375-.039063-.035156-.078126-.0625-.113282-.09375-.238281-.210937-.492187-.402343-.75-.578125-.058594-.039062-.113281-.078125-.167968-.113281-.292969-.183594-.59375-.347656-.90625-.488281-.035157-.015625-.0625-.039063-.097657-.054688l-3.953125-1.734375 3.953125-1.738281c.0625-.027344.121094-.070312.1875-.101562.25-.117188.492188-.246094.730469-.390626.101562-.0625.199219-.128906.296875-.199218.210937-.144532.414063-.300782.613281-.46875.089844-.074219.179688-.148438.265625-.230469.195313-.179687.375-.375.550781-.578125.066407-.082031.140626-.152344.207032-.234375.203125-.257813.390625-.53125.5625-.820313.019531-.03125.042968-.0625.0625-.097656.003906 0 .003906 0 .003906-.003906.175781-.300781.316406-.613281.445312-.929688.03125-.074218.058594-.148437.085938-.222656.121094-.328125.222656-.660156.296875-.996094.003906-.023437.007813-.050781.015625-.078124.066406-.332032.109375-.664063.132812-1.003907.003907-.058593.007813-.117187.011719-.179687.015625-.351563.003907-.703125-.03125-1.050782-.003906-.03125 0-.0625-.003906-.09375l-.46875-4.3125 3.542969 2.582032c.03125.023437.0625.035156.089844.058594.28125.195312.570312.375.875.535156.058593.03125.121093.058594.183593.085937.292969.144531.59375.269531.90625.375l.09375.035157c.324219.101562.660157.179687 1.003907.238281.078124.011719.152343.023437.230468.035156.339844.046875.683594.078125 1.035156.078125h.003907.003906c.355469 0 .703125-.03125 1.046875-.082031.070312-.007813.136719-.019531.203125-.03125.355469-.058594.703125-.136719 1.039063-.246094.003906 0 .007812-.003906.011718-.003906.351563-.113281.691406-.257813 1.019532-.417969.035156-.019531.070312-.035156.101562-.050781.332031-.167969.644531-.363281.941406-.578125.015625-.011719.035156-.019532.050782-.03125l3.546874-2.585938-.472656 4.316406c-.003906.023438 0 .046876 0 .070313-.039062.363281-.046875.726563-.03125 1.09375 0 .042969.003906.082031.007813.125.023437.367187.066406.730469.144531 1.09375v.007813c.078125.347656.183594.695312.308594 1.035156.023437.058594.046875.117187.070312.175781.128906.324219.273438.644531.453125.953125.191407.332031.410157.640625.640625.929688.050782.066406.109375.125.164063.1875.1875.222656.382812.433593.59375.625.074219.074218.15625.140624.238281.207031.207031.175781.417969.339843.640625.492187.089844.0625.183594.125.277344.183594.246093.152344.496093.285156.757812.410156.058594.027344.109375.0625.171875.089844l3.949219 1.738281-3.949219 1.734375c-.03125.011719-.058594.03125-.089844.046875-.320312.144531-.628906.3125-.929687.5-.042969.03125-.085937.0625-.132813.09375-.277343.183594-.546874.390625-.800781.613281-.023437.023438-.050781.039063-.074219.0625-.253906.234376-.492187.488282-.71875.757813-.046874.058594-.09375.117187-.136718.175781-.207032.265625-.402344.539063-.574219.839844-.007813.011719-.015625.019531-.023437.03125 0 0 0 .003906-.003907.007812-.175781.304688-.320312.621094-.449219.9375-.023437.066407-.050781.132813-.078124.199219-.125.335938-.226563.675781-.300782 1.019531-.003906.007813-.003906.019532-.003906.027344-.078125.355469-.121094.710938-.144531 1.070313-.003907.046875-.007813.089843-.011719.136719-.015625.363281-.003906.726562.03125 1.089843.003906.023438 0 .046875.003906.070313l.46875 4.3125zm0 0"/><path d="m53.164062 64.304688h.035157c4.125 0 7.480469-3.335938 7.5-7.464844l.011719-2.9375c.023437-4.144532-3.320313-7.515625-7.460938-7.535156-.011719 0-.027344 0-.039062 0-4.125 0-7.480469 3.332031-7.5 7.460937l-.011719 2.9375c-.019531 4.144531 3.320312 7.519531 7.464843 7.539063zm0 0"/><path d="m53.15625 76.269531c-.015625 0-.023438 0-.039062 0-4.125 0-7.476563 3.332031-7.496094 7.464844l-.015625 2.9375c-.019531 4.140625 3.324219 7.515625 7.464843 7.535156h.035157c4.125 0 7.480469-3.335937 7.5-7.464843l.015625-2.941407c.015625-4.140625-3.324219-7.515625-7.464844-7.53125zm0 0"/><path d="m66.632812 77.824219 2.941407.015625h.039062c4.125 0 7.476563-3.335938 7.5-7.464844.019531-4.140625-3.324219-7.515625-7.464843-7.535156l-2.945313-.015625c-4.09375-.023438-7.515625 3.320312-7.535156 7.464843-.019531 4.140626 3.324219 7.515626 7.464843 7.535157zm0 0"/><path d="m36.671875 77.734375 2.941406.011719h.035157c4.125 0 7.480468-3.335938 7.5-7.464844.019531-4.140625-3.324219-7.515625-7.464844-7.535156l-2.941406-.011719c-.015626 0-.023438 0-.039063 0-4.125 0-7.480469 3.332031-7.496094 7.464844-.019531 4.140625 3.320313 7.511719 7.464844 7.535156zm0 0"/><path d="m265.023438 320.480469h.035156c4.125 0 7.480468-3.335938 7.5-7.464844l.011718-2.9375c.019532-4.144531-3.320312-7.515625-7.464843-7.535156-.011719 0-.023438 0-.035157 0-4.125 0-7.480468 3.332031-7.5 7.464843l-.011718 2.9375c-.023438 4.140626 3.320312 7.515626 7.464844 7.535157zm0 0"/><path d="m265.011719 332.441406c-.011719 0-.023438 0-.035157 0-4.125 0-7.480468 3.335938-7.5 7.464844l-.011718 2.9375c-.019532 4.144531 3.320312 7.515625 7.464844 7.535156h.035156c4.125 0 7.480468-3.335937 7.5-7.464844l.011718-2.9375c.019532-4.140624-3.324218-7.515624-7.464843-7.535156zm0 0"/><path d="m281.507812 319.011719-2.945312-.011719c-.011719 0-.023438 0-.035156 0-4.125 0-7.480469 3.332031-7.5 7.464844-.019532 4.140625 3.324218 7.515625 7.464844 7.535156l2.941406.011719h.039062c4.125 0 7.480469-3.332031 7.5-7.460938.019532-4.144531-3.324218-7.515625-7.464844-7.539062zm0 0"/><path d="m251.542969 318.921875-2.941407-.015625c-.011718 0-.023437 0-.039062 0-4.125 0-7.476562 3.335938-7.496094 7.464844-.023437 4.140625 3.320313 7.515625 7.460938 7.535156l2.945312.015625h.035156c4.125 0 7.480469-3.335937 7.5-7.464844.019532-4.140625-3.320312-7.515625-7.464843-7.535156zm0 0"/><path d="m342.003906 297.648438h-.105468c-.011719 0-.023438 0-.035157 0-4.125 0-7.480469 3.332031-7.5 7.464843-.019531 4.140625 3.324219 7.515625 7.464844 7.535157h.105469.035156c4.125 0 7.480469-3.335938 7.5-7.464844.019531-4.144532-3.320312-7.515625-7.464844-7.535156zm0 0"/><path d="m191.050781 382.164062h-.105469c-4.140624 0-7.5 3.359376-7.5 7.5 0 4.144532 3.359376 7.5 7.5 7.5h.105469c4.140625 0 7.5-3.355468 7.5-7.5 0-4.140624-3.359375-7.5-7.5-7.5zm0 0"/><path d="m370.5625 330.621094h-.105469c-4.140625 0-7.5 3.355468-7.5 7.5 0 4.140625 3.359375 7.5 7.5 7.5h.105469c4.140625 0 7.5-3.359375 7.5-7.5 0-4.144532-3.359375-7.5-7.5-7.5zm0 0"/><path d="m468.035156 312.808594h-.101562c-.015625 0-.023438 0-.039063 0-4.125 0-7.476562 3.332031-7.496093 7.464844-.023438 4.140624 3.320312 7.515624 7.464843 7.535156h.101563.035156c4.125 0 7.480469-3.335938 7.5-7.464844.019531-4.144531-3.320312-7.515625-7.464844-7.535156zm0 0"/><path d="m423.578125 297.648438h-.101563c-.011718 0-.023437 0-.039062 0-4.125 0-7.476562 3.332031-7.496094 7.464843-.019531 4.140625 3.320313 7.515625 7.464844 7.535157h.101562.039063c4.125 0 7.476563-3.335938 7.496094-7.464844.019531-4.144532-3.320313-7.515625-7.464844-7.535156zm0 0"/><path d="m95.484375 29.210938h.105469.035156c4.125 0 7.480469-3.332032 7.5-7.464844.019531-4.140625-3.324219-7.515625-7.464844-7.535156h-.105468c-.011719 0-.023438 0-.035157 0-4.125 0-7.480469 3.335937-7.5 7.464843-.019531 4.144531 3.324219 7.515625 7.464844 7.535157zm0 0"/><path d="m156.417969 61.367188h.101562.039063c4.125 0 7.476562-3.335938 7.496094-7.464844.023437-4.144532-3.320313-7.515625-7.464844-7.535156h-.101563c-.011719 0-.023437 0-.035156 0-4.125 0-7.480469 3.332031-7.5 7.464843-.019531 4.140625 3.320313 7.515625 7.464844 7.535157zm0 0"/><path d="m37.03125 374.453125h-.105469c-.011719 0-.023437 0-.035156 0-4.125 0-7.480469 3.332031-7.5 7.464844-.019531 4.140625 3.324219 7.515625 7.464844 7.535156h.105469.035156c4.125 0 7.480468-3.335937 7.5-7.464844.019531-4.144531-3.324219-7.515625-7.464844-7.535156zm0 0"/></svg>