<svg height="512pt" viewBox="0 -126 512 512" width="512pt" xmlns="http://www.w3.org/2000/svg"><path d="m367.835938 134.53125c-3.527344-58.234375-51.863282-104.378906-110.984376-104.378906-47.683593 0-88.351562 30.015625-104.15625 72.183594-41.058593.492187-74.199218 33.917968-74.199218 75.09375 0 41.488281 33.636718 75.121093 75.121094 75.121093h212.15625c32.605468 0 59.035156-26.429687 59.035156-59.035156 0-31.914063-25.324219-57.894531-56.972656-58.984375zm0 0" fill="#a0ecff"/><path d="m424.8125 193.515625c0 32.601563-26.4375 59.039063-59.039062 59.039063h-4.574219c4.277343-8.171876 6.703125-17.476563 6.703125-27.339844 0-31.910156-25.324219-57.894532-56.976563-58.988282-3.523437-58.230468-51.863281-104.378906-110.988281-104.378906-7.972656 0-15.746094.839844-23.234375 2.433594 20.226563-21.03125 48.652344-34.125 80.144531-34.125 59.125 0 107.464844 46.136719 110.992188 104.378906 31.648437 1.082032 56.972656 27.066406 56.972656 58.980469zm0 0" fill="#60daff"/><path d="m62.320312 168.175781c2.519532-41.632812 37.078126-74.621093 79.34375-74.621093 34.089844 0 63.164063 21.457031 74.460938 51.601562 29.355469.355469 53.046875 24.25 53.046875 53.691406 0 29.660156-24.042969 53.703125-53.703125 53.703125-12.417969 0-138.917969 0-151.675781 0-23.308594 0-42.203125-18.894531-42.203125-42.207031 0-22.8125 18.105468-41.386719 40.730468-42.167969zm0 0" fill="#f0f5f7"/><path d="m269.175781 198.851562c0 29.40625-23.648437 53.289063-52.96875 53.6875 8.792969-9.566406 14.152344-22.3125 14.152344-36.316406 0-29.4375-23.6875-53.332031-53.050781-53.691406-11.296875-30.136719-40.367188-51.601562-74.460938-51.601562-4.027344 0-7.980468.304687-11.851562.882812 13.75-11.40625 31.40625-18.253906 50.667968-18.253906 34.09375 0 63.164063 21.453125 74.460938 51.601562 29.363281.355469 53.050781 24.242188 53.050781 53.691406zm0 0" fill="#dde9ed"/><path d="m278.671875 245.050781h-23.132813c12.933594-11.230469 21.132813-27.773437 21.132813-46.203125 0-2.023437-.101563-4.023437-.296875-5.996094h93.117188c4.144531 0 7.5-3.359374 7.5-7.5 0-4.140624-3.355469-7.5-7.5-7.5h-96.582032c-7.980468-21.625-27.875-37.65625-51.640625-39.921874-2.238281-5.058594-4.976562-9.921876-8.167969-14.511719-2.367187-3.398438-7.039062-4.238281-10.441406-1.871094-3.398437 2.363281-4.238281 7.039063-1.871094 10.4375 3.4375 4.941406 6.234376 10.257813 8.3125 15.804687 1.085938 2.898438 3.839844 4.832032 6.933594 4.871094 17.621094.210938 32.929688 10.441406 40.53125 25.191406h-36.441406c-4.144531 0-7.5 3.359376-7.5 7.5 0 4.140626 3.355469 7.5 7.5 7.5h41.140625c.261719 1.964844.40625 3.964844.40625 5.996094 0 25.476563-20.726563 46.207032-46.203125 46.207032h-151.671875c-13.019531 0-24.378906-7.210938-30.316406-17.839844h139.199219c4.144531 0 7.5-3.359375 7.5-7.5s-3.355469-7.5-7.5-7.5h-143.539063c-.03125-.617188-.050781-1.242188-.050781-1.867188 0-18.796875 14.710937-34.027344 33.488281-34.671875 3.863281-.132812 6.996094-3.183593 7.230469-7.042969.460937-7.617187 2.121094-14.890624 4.761718-21.667968h42.726563c4.144531 0 7.5-3.359375 7.5-7.5 0-4.144532-3.355469-7.5-7.5-7.5h-34.71875c13.058594-18.714844 34.746094-30.90625 59.085937-30.90625 13.308594 0 26.3125 3.667968 37.605469 10.601562 3.53125 2.167969 8.148438 1.066406 10.316407-2.464844 2.167968-3.53125 1.0625-8.148437-2.464844-10.316406-6.359375-3.902344-13.167969-6.9375-20.246094-9.082031 1.851562-3.21875 3.871094-6.328125 6.050781-9.328125h71.601563c4.140625 0 7.5-3.359375 7.5-7.5s-3.359375-7.5-7.5-7.5h-58.324219c3.429687-3.199219 7.074219-6.175781 10.917969-8.890625 3.386718-2.390625 4.191406-7.070313 1.804687-10.453125-2.390625-3.386719-7.070312-4.191406-10.453125-1.800781-8.539062 6.027343-16.21875 13.15625-22.867187 21.144531h-25.027344c-4.140625 0-7.5 3.359375-7.5 7.5s3.359375 7.5 7.5 7.5h14.378906c-1.207031 2.015625-2.363281 4.066406-3.449219 6.15625-3.257812-.371094-6.542968-.566406-9.84375-.566406-32.980468 0-61.941406 18.507812-76.675781 45.90625h-10.847656c-4.144531 0-7.5 3.355468-7.5 7.5 0 4.140625 3.355469 7.5 7.5 7.5h4.535156c-1.457031 4.636718-2.554687 9.4375-3.222656 14.378906-23.664063 3.945312-41.363281 24.328125-41.363281 49.003906 0 .625.023437 1.246094.046875 1.867188h-6.636719c-4.140625 0-7.5 3.359375-7.5 7.5 0 4.144531 3.359375 7.5 7.5 7.5h9.539062c6.925782 19.132812 25.265626 32.839844 46.757813 32.839844h214.875c4.140625 0 7.5-3.359376 7.5-7.5 0-4.144532-3.359375-7.503907-7.5-7.503907zm0 0"/><path d="m337.015625 208.175781c0-4.144531-3.359375-7.5-7.5-7.5h-28.757813c-4.144531 0-7.5 3.355469-7.5 7.5 0 4.140625 3.355469 7.5 7.5 7.5h28.757813c4.140625 0 7.5-3.359375 7.5-7.5zm0 0"/><path d="m390.816406 105.375c-4.144531 0-7.5 3.359375-7.5 7.5 0 4.144531 3.355469 7.5 7.5 7.5h33.992188c4.140625 0 7.5-3.355469 7.5-7.5 0-4.140625-3.359375-7.5-7.5-7.5zm0 0"/><path d="m504.5 162.554688h-79.816406c-2.921875-5.539063-6.640625-10.695313-11.105469-15.308594-1.804687-1.859375-3.703125-3.59375-5.679687-5.214844h80.203124c4.140626 0 7.5-3.355469 7.5-7.5 0-4.140625-3.359374-7.5-7.5-7.5h-113.421874c-2.03125-16.894531-7.613282-32.660156-15.949219-46.5625h40.082031c4.144531 0 7.5-3.359375 7.5-7.5 0-4.144531-3.355469-7.5-7.5-7.5h-50.738281c-9.347657-11.210938-20.710938-20.667969-33.515625-27.8125h125.566406c4.144531 0 7.5-3.359375 7.5-7.5 0-4.144531-3.355469-7.5-7.5-7.5h-183.273438c-12.621093 0-25.066406 1.980469-36.984374 5.886719-3.9375 1.289062-6.082032 5.527343-4.792969 9.460937 1.289062 3.9375 5.527343 6.085938 9.460937 4.792969 10.410156-3.410156 21.285156-5.140625 32.316406-5.140625 27.160157 0 52.039063 10.53125 70.613282 27.8125h-26.707032c-4.144531 0-7.5 3.355469-7.5 7.5 0 4.140625 3.355469 7.5 7.5 7.5h40.011719c11.25 15.460938 18.347657 34.164062 19.578125 54.519531.222656 3.800781 3.421875 6.910157 7.230469 7.039063 27.886719.960937 49.730469 23.578125 49.730469 51.488281 0 28.417969-23.117188 51.539063-51.535156 51.539063h-54.445313c-4.140625 0-7.5 3.355468-7.5 7.5 0 4.140624 3.359375 7.5 7.5 7.5h165.597656c4.144531 0 7.5-3.359376 7.5-7.5 0-4.144532-3.355469-7.5-7.5-7.5h-69.125c14.945313-12.210938 24.507813-30.777344 24.507813-51.539063 0-5.441406-.65625-10.792969-1.925782-15.960937h74.117188c4.144531 0 7.5-3.355469 7.5-7.5 0-4.140626-3.355469-7.5-7.5-7.5zm0 0"/><path d="m277.089844 15h35.4375c4.144531 0 7.5-3.359375 7.5-7.5s-3.355469-7.5-7.5-7.5h-35.4375c-4.140625 0-7.5 3.359375-7.5 7.5s3.359375 7.5 7.5 7.5zm0 0"/><path d="m85.71875 188.054688c-4.144531 0-7.5 3.355468-7.5 7.5 0 4.140624 3.355469 7.5 7.5 7.5h17.003906c4.140625 0 7.5-3.359376 7.5-7.5 0-4.144532-3.359375-7.5-7.5-7.5zm0 0"/></svg>